<svg xmlns="http://www.w3.org/2000/svg" width="80" height="80" viewBox="0 0 80 80">
    <defs>
        <style>
            .cls-1,.cls-5{fill:none}.cls-2{clip-path:url(#clip-path)}.cls-3{fill:rgba(255,255,255,0)}.cls-4{fill:rgba(227,186,186,0)}.cls-5{stroke:#454545;stroke-linecap:round;stroke-miterlimit:10;stroke-width:3px;fill-rule:evenodd}
        </style>
        <clipPath id="clip-path">
            <path d="M0 0h80v80H0z" class="cls-1"/>
        </clipPath>
    </defs>
    <g id="authority_call_ic" class="cls-2">
        <path id="사각형_591" d="M0 0h80v80H0z" class="cls-3" data-name="사각형 591"/>
        <g id="authority_call_ic-2" data-name="authority_call_ic" transform="translate(6.143 4.286)">
            <path id="사각형_252" d="M0 0h67.143v71.429H0z" class="cls-4" data-name="사각형 252"/>
            <path id="패스_254" d="M652.759 1083.156c-.245 0-.493-.008-.745-.024a26.664 26.664 0 0 1-9.8-2.88 52.467 52.467 0 0 1-17.242-13.5 47.066 47.066 0 0 1-8.332-13.925 19.158 19.158 0 0 1-1.418-8.185 7.379 7.379 0 0 1 2.39-5.106l3.745-3.746a5.083 5.083 0 0 1 7.48-.023c.7.651 1.389 1.355 2.053 2.036.331.339.666.682 1.009 1.025l2.963 2.963a5.14 5.14 0 0 1 .021 7.627c-.655.655-1.289 1.271-1.922 1.886-.539.523-1.076 1.044-1.614 1.577a20.511 20.511 0 0 0 3.019 4.648 36.974 36.974 0 0 0 9.116 8.272l.07.046a11.566 11.566 0 0 0 1.423.792l.43.216 3.51-3.509a5.077 5.077 0 0 1 7.5 0l6.074 6.075a5.072 5.072 0 0 1 0 7.577c-.4.4-.8.79-1.194 1.177-.789.773-1.534 1.5-2.254 2.269a7.98 7.98 0 0 1-6.283 2.712z" class="cls-5" data-name="패스 254" transform="translate(-605.886 -1023.423)"/>
        </g>
    </g>
</svg>
