<svg xmlns="http://www.w3.org/2000/svg" width="94" height="48" viewBox="0 0 94 48">
    <defs>
        <style>
            .cls-1{fill:#1e46ba}
        </style>
    </defs>
    <g id="bi_logo_ic" transform="translate(-610.444 -145.831)">
        <g id="그룹_3018" data-name="그룹 3018" transform="translate(610.444 145.831)">
            <path id="패스_932" d="M691.088 181.823h4.755a2.77 2.77 0 0 0 2.772-2.768v-6.18a6.074 6.074 0 0 0-7.488-5.888l-2.361-3.435c-4.818-7.012-14.887-11.909-24.489-11.909-10.285 0-19.075 3.577-27.659 11.263l-4.379 3.918h-5.247a12.176 12.176 0 0 0-2.1.174 9.319 9.319 0 0 0-2.892 1.046l-.121.068a12.076 12.076 0 0 0-4.774 4.868 6.738 6.738 0 0 0-.264 5.972 4.421 4.421 0 0 0 3.849 2.531h8.61v5.811h-8.61a10.223 10.223 0 0 1-9.032-5.682 12.534 12.534 0 0 1 .213-11.186 17.912 17.912 0 0 1 7.19-7.4l.143-.077a15.088 15.088 0 0 1 4.667-1.67 18.2 18.2 0 0 1 3.119-.263h3.015l2.719-2.432c9.718-8.7 19.744-12.75 31.551-12.75 11.589 0 23.362 5.8 29.3 14.437l.587.853a11.89 11.89 0 0 1 10.283 11.754v6.183a8.589 8.589 0 0 1-8.6 8.576h-4.755z" class="cls-1" data-name="패스 932" transform="translate(-610.444 -145.831)"/>
        </g>
        <g id="그룹_3020" data-name="그룹 3020" transform="translate(635.926 170.984)">
            <g id="그룹_3019" data-name="그룹 3019">
                <path id="패스_933" d="M644.022 163.09a17.354 17.354 0 0 1-.617-.641l-.523-.549a27.568 27.568 0 0 0-3.533-3.305 11.862 11.862 0 0 0-10.659-1.776 11.442 11.442 0 0 0 3.637 22.274 12.6 12.6 0 0 0 9.285-4.377l-3.818-3.818a15.827 15.827 0 0 1-1.217 1.331 6.194 6.194 0 0 1-8.624-.2 6.211 6.211 0 0 1 3.475-10.516 6.053 6.053 0 0 1 5.28 1.667q2.737 2.719 5.466 5.437l.462.46q3.463 3.448 6.93 6.887a11.806 11.806 0 0 0 12.929 2 10.423 10.423 0 0 0 1.27-.74 12.1 12.1 0 0 0 3.649-4.01 11.344 11.344 0 0 0-15.131-15.649 17.529 17.529 0 0 0-4.036 3.1l3.77 3.77a10.173 10.173 0 0 1 2.12-2.054 5.566 5.566 0 0 1 1.108-.571 6.287 6.287 0 0 1 7.371 2.442 6.075 6.075 0 0 1 .75 5.273 6.17 6.17 0 0 1-3.693 3.935 5.954 5.954 0 0 1-6.11-.975 33.985 33.985 0 0 1-3.17-3c-.392-.4-.774-.8-1.161-1.183q-2.591-2.573-5.164-5.164z" class="cls-1" data-name="패스 933" transform="translate(-620.942 -156.245)"/>
            </g>
        </g>
    </g>
</svg>
