<svg xmlns="http://www.w3.org/2000/svg" width="184" height="184" viewBox="0 0 184 184">
    <defs>
        <style>
            .cls-1{fill:#46aa96}.cls-2{fill:#1e46ba}.cls-3{fill:#fff}
        </style>
    </defs>
    <g id="launcher_ic" transform="translate(-266 -280)">
        <rect id="사각형_521" width="184" height="184" class="cls-1" data-name="사각형 521" rx="11.279" transform="translate(266 280)"/>
        <rect id="사각형_522" width="184" height="184" class="cls-2" data-name="사각형 522" rx="11.279" transform="translate(266 280)"/>
        <g id="그룹_2982" data-name="그룹 2982" transform="translate(292.676 317.91)">
            <g id="그룹_2979" data-name="그룹 2979">
                <path id="패스_799" d="M823.314 359.138h6.573a3.833 3.833 0 0 0 3.833-3.833v-8.571a8.4 8.4 0 0 0-10.353-8.159l-3.261-4.762c-6.664-9.713-20.586-16.513-33.858-16.513-14.223 0-26.373 4.961-38.241 15.613l-6.056 5.431H734.7a16.59 16.59 0 0 0-2.908.243 12.821 12.821 0 0 0-3.991 1.448l-.169.094a16.7 16.7 0 0 0-6.6 6.747 9.365 9.365 0 0 0-.368 8.278 6.114 6.114 0 0 0 5.323 3.507h11.9v8.057h-11.9a14.129 14.129 0 0 1-12.487-7.877 17.415 17.415 0 0 1 .293-15.505 24.78 24.78 0 0 1 9.944-10.259l.2-.111a20.921 20.921 0 0 1 6.454-2.313 24.889 24.889 0 0 1 4.312-.365h4.168l3.759-3.372c13.435-12.056 27.3-17.672 43.622-17.672 16.022 0 32.3 8.043 40.5 20.01l.813 1.186a16.464 16.464 0 0 1 14.215 16.29v8.57a11.89 11.89 0 0 1-11.89 11.89h-6.573z" class="cls-3" data-name="패스 799" transform="translate(-711.82 -309.248)"/>
            </g>
            <g id="그룹_2981" data-name="그룹 2981" transform="translate(31.486 33.134)">
                <g id="그룹_2980" data-name="그룹 2980">
                    <path id="패스_800" d="M758.72 331.766a24.26 24.26 0 0 1-.945-.984l-.807-.846a42.247 42.247 0 0 0-5.436-5.083 18.225 18.225 0 0 0-16.4-2.733 17.6 17.6 0 0 0 5.594 34.269 19.4 19.4 0 0 0 14.286-6.735l-5.873-5.873a25.054 25.054 0 0 1-1.877 2.048 9.525 9.525 0 0 1-13.262-.313 9.554 9.554 0 0 1 5.348-16.177 9.3 9.3 0 0 1 8.123 2.565q4.208 4.179 8.408 8.363l.713.708q5.323 5.3 10.663 10.594c4.92 4.867 13.468 6.188 19.892 3.076a16.133 16.133 0 0 0 1.951-1.139 18.652 18.652 0 0 0 5.616-6.169 17.456 17.456 0 0 0-23.28-24.079 27 27 0 0 0-6.208 4.776l5.8 5.8a15.723 15.723 0 0 1 3.259-3.159 8.629 8.629 0 0 1 1.705-.879 9.681 9.681 0 0 1 11.343 3.756 9.349 9.349 0 0 1 1.153 8.112 9.481 9.481 0 0 1-5.68 6.053 9.169 9.169 0 0 1-9.4-1.5 52.326 52.326 0 0 1-4.875-4.616c-.6-.622-1.188-1.227-1.785-1.819q-3.988-3.963-7.946-7.946z" class="cls-3" data-name="패스 800" transform="translate(-723.212 -321.236)"/>
                </g>
            </g>
        </g>
        <g id="그룹_2983" data-name="그룹 2983" transform="translate(295.037 405.403)">
            <path id="사각형_523" d="M0 0h2.763v20.551H0z" class="cls-3" data-name="사각형 523" transform="translate(14.053)"/>
            <path id="패스_801" d="M721.234 354.021c-1.172.069-2.319.1-3.408.1h-2.435v-4.254h7.131v-8.35h-9.848v2.286h7.133v3.875h-7.133v8.728h4.436c1.446 0 2.849-.03 4.179-.094a35.561 35.561 0 0 0 3.549-.337l-.3-2.266c-1.063.138-2.174.24-3.304.312z" class="cls-3" data-name="패스 801" transform="translate(-712.674 -339.812)"/>
            <path id="사각형_524" d="M0 0h2.762v20.549H0z" class="cls-3" data-name="사각형 524" transform="translate(35.216)"/>
            <path id="패스_802" d="M731.318 354.191c-.3-.3-.594-.58-.871-.86s-.517-.531-.733-.779a10.449 10.449 0 0 1-.815-1.009 5.015 5.015 0 0 1-.55-1.012 5.447 5.447 0 0 1-.3-1.111 7.852 7.852 0 0 1-.1-1.28v-1.96h4.451v-2.311h-4.447v-2.924h-2.786v2.924H720.5v2.311h4.66v1.96a8.943 8.943 0 0 1-.083 1.291 4.629 4.629 0 0 1-.307 1.1 5.476 5.476 0 0 1-.583 1.036c-.238.332-.536.7-.89 1.1a47.952 47.952 0 0 1-3.43 3.369l1.794 1.835a39.15 39.15 0 0 0 1.614-1.539q.713-.726 1.379-1.412c.381-.4.757-.813 1.111-1.23a5.73 5.73 0 0 0 .674-.926l.033-.072h.213l.033.08a3.546 3.546 0 0 0 .561.785c.3.345.7.774 1.172 1.266a88.19 88.19 0 0 0 2.852 2.808l1.744-1.8c-.268-.246-.542-.5-.818-.76q-.461-.44-.911-.88z" class="cls-3" data-name="패스 802" transform="translate(-699.981 -340.828)"/>
            <path id="패스_803" d="M736.457 347.137l-7.65.122.083 2.308 7.335-.193-.091.191a5.164 5.164 0 0 1-.84 1.219 9.9 9.9 0 0 1-1.434 1.266c-.583.434-1.3.909-2.136 1.409-.791.475-1.708 1-2.8 1.592l1.316 2.225c1.813-1 3.314-1.9 4.458-2.678a14.108 14.108 0 0 0 2.745-2.333 6.3 6.3 0 0 0 1.34-2.377 10.582 10.582 0 0 0 .365-2.946V341.6H729.3v2.308h7.158z" class="cls-3" data-name="패스 803" transform="translate(-684.218 -339.675)"/>
            <path id="패스_804" d="M736.633 340.9h-2.761v20.549h2.761V351.2h3.044v-2.357h-3.044z" class="cls-3" data-name="패스 804" transform="translate(-675.284 -340.904)"/>
            <path id="사각형_525" d="M0 0h20.001v2.049H0z" class="cls-3" data-name="사각형 525" transform="translate(65.683 8.149)"/>
            <path id="패스_805" d="M749.974 343.119h2.545v-2.026h-15.1v2.026h2.543v2.355h-2.687v2.026h15.385v-2.026h-2.686zm-2.667 2.355h-4.679v-2.355h4.679z" class="cls-3" data-name="패스 805" transform="translate(-669.283 -340.571)"/>
            <path id="패스_806" d="M740.165 350.506h11.745v-5.4H737.4v2h11.865v1.494h-11.743v5.424h15.031v-2h-12.388z" class="cls-3" data-name="패스 806" transform="translate(-669.056 -333.494)"/>
            <path id="패스_807" d="M750.915 341.355h-2.595v19.394h2.595v-9.784h2.16v10.469h2.594V340.9h-2.594v7.728h-2.16z" class="cls-3" data-name="패스 807" transform="translate(-649.799 -340.904)"/>
            <path id="패스_808" d="M750.921 353.612a52.76 52.76 0 0 1-2.858.083h-1.13V349.7h5.685v-8.112h-8.256v2.239h5.683v3.731h-5.683v8.372h3.082c1.241 0 2.457-.028 3.61-.083a26.417 26.417 0 0 0 3-.3l-.257-2.219c-.961.138-1.928.231-2.876.284z" class="cls-3" data-name="패스 808" transform="translate(-656.781 -339.69)"/>
            <path id="패스_809" d="M754.853 349.562h5.9v11.891h2.762V340.9h-2.762v6.3h-5.9z" class="cls-3" data-name="패스 809" transform="translate(-638.276 -340.904)"/>
            <path id="패스_810" d="M760.042 353.3c-1.3.08-2.537.119-3.67.119h-1.744v-11.87h-2.786v14.223h3.817c.724 0 1.468-.008 2.208-.025a60.404 60.404 0 0 0 4.295-.235c.608-.058 1.18-.133 1.7-.218l-.3-2.338a54.544 54.544 0 0 1-3.52.344z" class="cls-3" data-name="패스 810" transform="translate(-643.587 -339.766)"/>
        </g>
    </g>
</svg>
