<svg xmlns="http://www.w3.org/2000/svg" width="62" height="62" viewBox="0 0 62 62">
    <defs>
        <style>
            .cls-1{fill:#fff}
        </style>
    </defs>
    <g id="link_goto_ic" transform="translate(-567 -3748)">
        <circle id="타원_380" cx="31" cy="31" r="31" class="cls-1" data-name="타원 380" transform="translate(567 3748)"/>
        <g id="Capa_1" data-name="Capa 1" transform="translate(573 3754.01)">
            <path id="패스_1873" d="M31.635 196.889v-.048a8.364 8.364 0 0 0-.025-1.8 8.1 8.1 0 0 0-.537-2.065l-.1-.244a8.117 8.117 0 0 0-1.682-2.437l-.03-.03a8.231 8.231 0 0 0-1.25-1.015l-2.44 2.414a1.3 1.3 0 0 0-.219.283 4.432 4.432 0 0 1 1.341.911l.017.017a4.505 4.505 0 0 1-.017 6.381l-9.2 9.1a4.7 4.7 0 0 1-6.51 0l-.017-.017a4.505 4.505 0 0 1 .017-6.381l5.04-4.986a11.263 11.263 0 0 1-.873-4.27l-6.734 6.662a8.154 8.154 0 0 0-.031 11.555l.032.032a8.306 8.306 0 0 0 11.643 0l9.2-9.1a8.03 8.03 0 0 0 2.375-4.962z" data-name="패스 1873" transform="translate(0 -169.327)"/>
            <path id="패스_1874" d="M191.613 8.4l-.031-.031a8.306 8.306 0 0 0-11.644 0l-9.2 9.1a8.154 8.154 0 0 0-.031 11.555l.032.032a8.229 8.229 0 0 0 1.249 1.014l2.44-2.414a1.308 1.308 0 0 0 .219-.283 4.431 4.431 0 0 1-1.341-.911l-.018-.018a4.505 4.505 0 0 1 .018-6.381l9.2-9.1a4.7 4.7 0 0 1 6.509 0l.012.012a4.505 4.505 0 0 1-.012 6.387l-5.04 4.986a11.265 11.265 0 0 1 .873 4.27l6.734-6.662a8.154 8.154 0 0 0 .031-11.556z" data-name="패스 1874" transform="translate(-149.979)"/>
        </g>
    </g>
</svg>
