<svg xmlns="http://www.w3.org/2000/svg" width="88" height="88" viewBox="0 0 88 88">
    <defs>
        <style>
            .cls-1{fill:#fff}.cls-2{fill:none}.cls-3{clip-path:url(#clip-path)}.cls-4{clip-path:url(#clip-path-2)}.cls-5{fill:#454545}.cls-6{fill:#0f0;opacity:0}
        </style>
        <clipPath id="clip-path">
            <path d="M0 0h88v88H0z" class="cls-2"/>
        </clipPath>
        <clipPath id="clip-path-2">
            <circle id="타원_338" cx="40" cy="40" r="40" class="cls-1" data-name="타원 338" transform="translate(73 231.75)"/>
        </clipPath>
    </defs>
    <g id="main_top_my_img" class="cls-3">
        <circle id="타원_110" cx="40" cy="40" r="40" class="cls-1" data-name="타원 110" transform="translate(4 4)"/>
        <g id="마스크_그룹_8" class="cls-4" data-name="마스크 그룹 8" transform="translate(-69 -227.75)">
            <g id="그룹_3180" data-name="그룹 3180" transform="translate(80.992 236.333)">
                <circle id="타원_108" cx="1.907" cy="1.907" r="1.907" class="cls-5" data-name="타원 108" transform="translate(25.596 24.153)"/>
                <circle id="타원_109" cx="1.907" cy="1.907" r="1.907" class="cls-5" data-name="타원 109" transform="translate(35.628 24.153)"/>
                <path id="패스_997" d="M-1313.077 7253.047h1.791l4.127 15.5-4.581 8.811-4.93-8.975z" class="cls-5" data-name="패스 997" transform="translate(1344.742 -7204.409)"/>
                <path id="패스_998" d="M-1312.141 7240.007a4.115 4.115 0 0 1-4.112-4.111.923.923 0 0 1 .924-.922.922.922 0 0 1 .924.922 2.267 2.267 0 0 0 2.264 2.265 2.267 2.267 0 0 0 2.265-2.265.923.923 0 0 1 .924-.922.922.922 0 0 1 .924.922 4.115 4.115 0 0 1-4.113 4.111z" class="cls-5" data-name="패스 998" transform="translate(1344.709 -7202.963)"/>
                <path id="패스_999" d="M-1345.353 7260.7c-.151-5.395 5.86-8.2 5.919-8.231l.061-.029 14.164-7.725a33.822 33.822 0 0 0 5.188 6.191.923.923 0 0 0 .625.243 1.024 1.024 0 0 0 .133-.01.92.92 0 0 0 .66-.44l2.507-4.2.578 1.446h1.961l.462-1.36 2.456 4.118a.929.929 0 0 0 .649.439 1.016 1.016 0 0 0 .144.011.924.924 0 0 0 .609-.229 29.932 29.932 0 0 0 5.182-6.1l13.974 7.622.061.029c.061.028 6.071 2.813 5.92 8.231-.011.384-.02.928-.029 1.585a43.372 43.372 0 0 0 1.857-2.019c-.154-6.136-6.371-9.192-6.953-9.463l-13.957-7.614-.3-.165-.892-1.862-1.1-2.287a17.422 17.422 0 0 0 3.712-6.913c1.986-.162 3.511-2.5 3.511-5.459a6.559 6.559 0 0 0-1.477-4.386c.54-2.972 1.736-10.514.553-13.384-1.489-3.611-6.717-9.347-16.665-8.456s-8.8 5.866-8.8 5.866-5.229-1.572-5.994 4.89a23.564 23.564 0 0 0 1.2 10.52 5.975 5.975 0 0 0-2.12 4.95c0 2.937 1.5 5.264 3.468 5.454a17.321 17.321 0 0 0 3.97 7.2l-.878 1.835-.973 2.033-.142.079-14.119 7.7c-.583.271-6.8 3.327-6.953 9.463.6.687 1.211 1.362 1.857 2.019-.01-.668-.019-1.211-.029-1.592zm29.043-17.451l-3.278 5.5a29.921 29.921 0 0 1-4.4-5.576l1.289-2.692a12.358 12.358 0 0 0 6.391 2.771zm1.7.228h-.013a.918.918 0 0 0-.056-.15h.127a.993.993 0 0 0-.063.146zm9.26-.083a26.525 26.525 0 0 1-4.288 5.371l-3.289-5.516a.722.722 0 0 0-.053-.079 12.518 12.518 0 0 0 6.122-2.927zm-21.126-12.611l-.216-.921-.915.234a.841.841 0 0 1-.213.029c-.889 0-1.882-1.549-1.882-3.622s.994-3.621 1.882-3.621a.864.864 0 0 1 .263.042l.142.044a7.228 7.228 0 0 1 1 2.3 31.305 31.305 0 0 1 .414-4.267 16.273 16.273 0 0 1 .9-2.14 71.679 71.679 0 0 0 5.826-4.56s6.887 5.228 14.921 5.484l1.531 5.482s.261-1.846 1.276-2.279c.753.391 1.457 1.764 1.457 3.509 0 2.073-.994 3.622-1.882 3.622a.842.842 0 0 1-.233-.034l-.931-.264-.219.943c-1.466 6.307-6.219 10.712-11.561 10.712s-10.098-4.398-11.565-10.698z" class="cls-5" data-name="패스 999" transform="translate(1347.182 -7200.181)"/>
            </g>
        </g>
        <path id="G_88_88" d="M0 0h88v88H0z" class="cls-6" data-name="G_88*88"/>
    </g>
</svg>
