<svg xmlns="http://www.w3.org/2000/svg" width="46" height="46" viewBox="0 0 46 46">
    <defs>
        <style>
            .cls-1,.cls-3{fill:none}.cls-2{clip-path:url(#clip-path)}.cls-4,.cls-6{fill:#fff}.cls-5,.cls-6{stroke:none}
        </style>
        <clipPath id="clip-path">
            <path d="M0 0h46v46H0z" class="cls-1"/>
        </clipPath>
    </defs>
    <g id="main_top_point_ic" class="cls-2">
        <g id="그룹_2342" data-name="그룹 2342">
            <g id="패스_1765" class="cls-3" data-name="패스 1765">
                <path d="M23 0A23 23 0 1 1 0 23 23 23 0 0 1 23 0z" class="cls-5"/>
                <path d="M23 2A20.933 20.933 0 0 0 8.15 8.15 20.933 20.933 0 0 0 2 23a20.933 20.933 0 0 0 6.15 14.85A20.933 20.933 0 0 0 23 44a20.933 20.933 0 0 0 14.85-6.15A20.933 20.933 0 0 0 44 23a20.933 20.933 0 0 0-6.15-14.85A20.933 20.933 0 0 0 23 2m0-2c12.702 0 23 10.297 23 23 0 12.702-10.298 23-23 23C10.297 46 0 35.702 0 23 0 10.297 10.297 0 23 0z" class="cls-6"/>
            </g>
        </g>
        <path id="p" d="M-3907.985-224.037h-4.968l-.047-22.337h7.672a22.363 22.363 0 0 1 3.125.249 7.321 7.321 0 0 1 3.516 1.562 6.024 6.024 0 0 1 2.047 4.61c.087 2.453-.218 4.045-2.125 5.937a9.341 9.341 0 0 1-6 2.313c-.454.018-.97.027-1.532.027-.81 0-1.488-.019-1.676-.025l-.011 7.663zm1.673-11.479s.167.016.427.016c.764 0 2.625-.139 3.416-1.422a4.089 4.089 0 0 0-.187-4.453c-.673-.674-1.428-1.069-3.3-1.094a99.684 99.684 0 0 0-1.366-.011 5.345 5.345 0 0 0-.6.011v6.953z" class="cls-4" transform="translate(3929.969 259.375)"/>
    </g>
</svg>
