<svg xmlns="http://www.w3.org/2000/svg" width="88" height="88" viewBox="0 0 88 88">
    <defs>
        <style>
            .cls-1{fill:#eee}.cls-2{fill:none}.cls-3{clip-path:url(#clip-path)}.cls-4{fill:#fff}.cls-5{clip-path:url(#clip-path-2)}.cls-6,.cls-7{fill:#454545}.cls-7{opacity:.35}.cls-8{fill:#0f0;opacity:0}
        </style>
        <clipPath id="clip-path">
            <path d="M0 0h88v88H0z" class="cls-2"/>
        </clipPath>
        <clipPath id="clip-path-2">
            <path id="패스_992" d="M40 0A40 40 0 1 1 0 40 40 40 0 0 1 40 0z" class="cls-1" data-name="패스 992" transform="translate(140 62)"/>
        </clipPath>
    </defs>
    <g id="main_top_my_woman_img" class="cls-3">
        <circle id="타원_110" cx="40" cy="40" r="40" class="cls-4" data-name="타원 110" transform="translate(4 4)"/>
        <g id="마스크_그룹_7" class="cls-5" data-name="마스크 그룹 7" transform="translate(-136 -58)">
            <g id="그룹_3149" data-name="그룹 3149" transform="translate(148 67.4)">
                <path id="패스_980" d="M-1067.875 7227.091a2 2 0 0 0-2 2 2 2 0 0 0 2 2 2 2 0 0 0 2-2 2 2 0 0 0-2-2z" class="cls-6" data-name="패스 980" transform="translate(1095.061 -7203.814)"/>
                <path id="패스_982" d="M-1057.083 7227.091a2 2 0 0 0-2 2 2 2 0 0 0 2 2 2 2 0 0 0 2-2 2 2 0 0 0-2-2z" class="cls-6" data-name="패스 982" transform="translate(1094.137 -7203.814)"/>
                <path id="패스_984" d="M-1062.489 7257.939a1.509 1.509 0 0 0 1.509-1.509 1.51 1.51 0 0 0-1.509-1.509 1.509 1.509 0 0 0-1.509 1.509 1.508 1.508 0 0 0 1.509 1.509z" class="cls-6" data-name="패스 984" transform="translate(1094.682 -7206.797)"/>
                <path id="패스_985" d="M-1062.489 7257.939a1.509 1.509 0 0 0 1.509-1.509 1.51 1.51 0 0 0-1.509-1.509 1.509 1.509 0 0 0-1.509 1.509 1.508 1.508 0 0 0 1.509 1.509z" class="cls-7" data-name="패스 985" transform="translate(1094.682 -7206.797)"/>
                <path id="패스_986" d="M-1060.98 7261.37a1.51 1.51 0 0 0-1.509-1.51 1.509 1.509 0 0 0-1.509 1.51 1.508 1.508 0 0 0 1.509 1.508 1.509 1.509 0 0 0 1.509-1.508z" class="cls-6" data-name="패스 986" transform="translate(1094.682 -7206.797)"/>
                <path id="패스_987" d="M-1060.98 7261.37a1.51 1.51 0 0 0-1.509-1.51 1.509 1.509 0 0 0-1.509 1.51 1.508 1.508 0 0 0 1.509 1.508 1.509 1.509 0 0 0 1.509-1.508z" class="cls-7" data-name="패스 987" transform="translate(1094.682 -7206.797)"/>
                <path id="패스_988" d="M-1058.946 7235.537a1 1 0 0 0-1 1 2.432 2.432 0 0 1-2.429 2.429 2.432 2.432 0 0 1-2.43-2.429 1 1 0 0 0-1-1 1 1 0 0 0-1 1 4.434 4.434 0 0 0 4.43 4.429 4.434 4.434 0 0 0 4.429-4.429 1 1 0 0 0-1-1z" class="cls-6" data-name="패스 988" transform="translate(1094.671 -7204.519)"/>
                <path id="패스_989" d="M-1058.946 7235.537a1 1 0 0 0-1 1 2.432 2.432 0 0 1-2.429 2.429 2.432 2.432 0 0 1-2.43-2.429 1 1 0 0 0-1-1 1 1 0 0 0-1 1 4.434 4.434 0 0 0 4.43 4.429 4.434 4.434 0 0 0 4.429-4.429 1 1 0 0 0-1-1z" class="cls-7" data-name="패스 989" transform="translate(1094.671 -7204.519)"/>
                <path id="패스_990" d="M-1039.92 7251.342l-8.169-4.455c.272-4.311 1.149-21.53-1.252-33.995a5.785 5.785 0 0 0-.194-.981V7211.893c-1.289-4.459-7.938-11-16.855-10.2-9.862.884-8.662 5.368-8.662 5.368a10.152 10.152 0 0 0-6.48 8.286c-.047.393-.079.766-.1 1.123h-.028c-1.129 9.866-.785 26.174-.672 30.4l-8.146 4.444c-.286.13-6.868 3.2-6.934 9.537.606.556 1.225 1.1 1.86 1.623-.009-.458-.019-.906-.031-1.327-.148-5.342 5.806-8.126 5.927-8.184l13.809-7.532a66.357 66.357 0 0 0 5.245 8.638.92.92 0 0 0 .746.381.848.848 0 0 0 .087 0 .92.92 0 0 0 .747-.525l3.9-8.29 3.9 8.29a.924.924 0 0 0 .744.525h.089a.921.921 0 0 0 .742-.374 60.13 60.13 0 0 0 5.2-8.556l13.707 7.472c.061.029 6.015 2.813 5.866 8.155-.012.421-.021.869-.03 1.327a47.023 47.023 0 0 0 1.859-1.623c-.069-6.338-6.649-9.408-6.875-9.509zm-30.1.347a58.148 58.148 0 0 1-4.494-7.713l1.486-3.1a10.837 10.837 0 0 0 6.678 3.016zm9.781.011l-3.706-7.878a10.926 10.926 0 0 0 6.374-3.213l1.71 3.572a52.7 52.7 0 0 1-4.375 7.519zm8.789-24.464c-.456 3.475-1.058 3.677-2.044 3.591a1.614 1.614 0 0 1-.254-.034l-.93-.263-.219.94c-1.545 6.648-5.483 10.615-10.534 10.615s-8.985-3.963-10.532-10.6l-.214-.918-.913.234a.821.821 0 0 1-.21.03c-.878 0-1.861-1.534-1.861-3.585 0-1.636.163-3.584.939-3.584a.836.836 0 0 1 .26.042l.138.043a7.074 7.074 0 0 1 .993 2.28 33.263 33.263 0 0 1 .321-3.709c2.51-.345 9.406-1.628 13.292-5.659 0 0 5.339 2.581 8.261 3.892l1.515 5.476s.276-1.937 1.36-2.29a.876.876 0 0 1 .452.255c.53.608.296 2.388.183 3.244z" class="cls-6" data-name="패스 990" transform="translate(1097.419 -7201.624)"/>
                <path id="패스_991" d="M-1039.92 7251.342l-8.169-4.455c.272-4.311 1.149-21.53-1.252-33.995a5.785 5.785 0 0 0-.194-.981V7211.893c-1.289-4.459-7.938-11-16.855-10.2-9.862.884-8.662 5.368-8.662 5.368a10.152 10.152 0 0 0-6.48 8.286c-.047.393-.079.766-.1 1.123h-.028c-1.129 9.866-.785 26.174-.672 30.4l-8.146 4.444c-.286.13-6.868 3.2-6.934 9.537.606.556 1.225 1.1 1.86 1.623-.009-.458-.019-.906-.031-1.327-.148-5.342 5.806-8.126 5.927-8.184l13.809-7.532a66.357 66.357 0 0 0 5.245 8.638.92.92 0 0 0 .746.381.848.848 0 0 0 .087 0 .92.92 0 0 0 .747-.525l3.9-8.29 3.9 8.29a.924.924 0 0 0 .744.525h.089a.921.921 0 0 0 .742-.374 60.13 60.13 0 0 0 5.2-8.556l13.707 7.472c.061.029 6.015 2.813 5.866 8.155-.012.421-.021.869-.03 1.327a47.023 47.023 0 0 0 1.859-1.623c-.069-6.338-6.649-9.408-6.875-9.509zm-30.1.347a58.148 58.148 0 0 1-4.494-7.713l1.486-3.1a10.837 10.837 0 0 0 6.678 3.016zm9.781.011l-3.706-7.878a10.926 10.926 0 0 0 6.374-3.213l1.71 3.572a52.7 52.7 0 0 1-4.375 7.519zm8.789-24.464c-.456 3.475-1.058 3.677-2.044 3.591a1.614 1.614 0 0 1-.254-.034l-.93-.263-.219.94c-1.545 6.648-5.483 10.615-10.534 10.615s-8.985-3.963-10.532-10.6l-.214-.918-.913.234a.821.821 0 0 1-.21.03c-.878 0-1.861-1.534-1.861-3.585 0-1.636.163-3.584.939-3.584a.836.836 0 0 1 .26.042l.138.043a7.074 7.074 0 0 1 .993 2.28 33.263 33.263 0 0 1 .321-3.709c2.51-.345 9.406-1.628 13.292-5.659 0 0 5.339 2.581 8.261 3.892l1.515 5.476s.276-1.937 1.36-2.29a.876.876 0 0 1 .452.255c.53.608.296 2.388.183 3.244z" class="cls-7" data-name="패스 991" transform="translate(1097.419 -7201.624)"/>
            </g>
        </g>
        <path id="G_88_88" d="M0 0h88v88H0z" class="cls-8" data-name="G_88*88"/>
    </g>
</svg>
