<svg xmlns="http://www.w3.org/2000/svg" width="84" height="84" viewBox="0 0 84 84">
    <defs>
        <style>
            .cls-1,.cls-5,.cls-6{fill:none}.cls-2{clip-path:url(#clip-path)}.cls-3{fill:#454545}.cls-4{fill:#fff}.cls-5,.cls-6{stroke:#1e46ba;stroke-width:3.5px}.cls-6{stroke-linecap:round}.cls-7{fill:#3aff00;opacity:0}.cls-8{stroke:none}
        </style>
        <clipPath id="clip-path">
            <path d="M0 0h84v84H0z" class="cls-1"/>
        </clipPath>
    </defs>
    <g id="main_repair_history_ic" class="cls-2">
        <path id="패스_1029" d="M-605.738 3533.584l-6.885-1.258-5.925-6.928c-.3-.361-2.466-2.867-5.1-2.867h-16.937c-2.631 0-4.8 2.506-5.1 2.867l-5.994 7.008-3.9 1.184a4.311 4.311 0 0 0-4.029 4.3v8.8a4.31 4.31 0 0 0 4.305 4.3h3.372a6.491 6.491 0 0 0 6.289 4.918 6.491 6.491 0 0 0 6.289-4.918h15.736a6.491 6.491 0 0 0 6.289 4.918 6.491 6.491 0 0 0 6.289-4.918h5.125a4.31 4.31 0 0 0 4.305-4.3v-8.8a4.311 4.311 0 0 0-4.129-4.306zm.8 13.1a.986.986 0 0 1-.973.972h-5.181a6.49 6.49 0 0 0-6.233-4.71 6.491 6.491 0 0 0-6.233 4.71H-639.4a6.49 6.49 0 0 0-6.233-4.71 6.491 6.491 0 0 0-6.233 4.71h-3.434a.986.986 0 0 1-.973-.972v-8.8a.986.986 0 0 1 .973-.975 1.667 1.667 0 0 0 .484-.071l4.572-1.388a1.673 1.673 0 0 0 .782-.511l6.32-7.39.024-.028a4.629 4.629 0 0 1 2.531-1.661h16.937a4.576 4.576 0 0 1 2.531 1.661l.024.028 6.32 7.39a1.668 1.668 0 0 0 .967.556l7.6 1.388a1.6 1.6 0 0 0 .3.027.986.986 0 0 1 .973.975zm-9.239 2.742a3.124 3.124 0 0 1-.419 1.562 3.147 3.147 0 0 1-2.73 1.586 3.148 3.148 0 0 1-2.73-1.586 3.121 3.121 0 0 1-.419-1.562c0-.034 0-.068.005-.1a3.13 3.13 0 0 1 .542-1.666 3.148 3.148 0 0 1 2.6-1.378 3.148 3.148 0 0 1 2.6 1.378 3.132 3.132 0 0 1 .542 1.666.366.366 0 0 1 .014.105zm-28.314 0a3.124 3.124 0 0 1-.419 1.562 3.147 3.147 0 0 1-2.73 1.586 3.148 3.148 0 0 1-2.73-1.586 3.127 3.127 0 0 1-.419-1.562c0-.034 0-.068.005-.1a3.131 3.131 0 0 1 .542-1.666 3.148 3.148 0 0 1 2.6-1.378 3.148 3.148 0 0 1 2.6 1.378 3.135 3.135 0 0 1 .542 1.666c.01.036.014.074.014.105z" class="cls-3" data-name="패스 1029" transform="translate(669.601 -3490.479)"/>
        <ellipse id="타원_115" cx="15.384" cy="15.384" class="cls-4" data-name="타원 115" rx="15.384" ry="15.384" transform="translate(45.28 20.199)"/>
        <g id="돋보기" transform="rotate(-90 48.123 4.987)">
            <g id="타원_105" class="cls-5" data-name="타원 105" transform="rotate(-135 16.049 13.92)">
                <ellipse cx="12.413" cy="12.413" class="cls-8" rx="12.413" ry="12.413"/>
                <ellipse cx="12.413" cy="12.413" class="cls-1" rx="10.663" ry="10.663"/>
            </g>
            <path id="선_87" d="M0 8.056L8.323 0" class="cls-6" data-name="선 87" transform="translate(.515 25.281)"/>
        </g>
        <path id="사각형_632" d="M0 0h84v84H0z" class="cls-7" data-name="사각형 632"/>
    </g>
</svg>
