<svg xmlns="http://www.w3.org/2000/svg" id="my_page_setting_ic" width="72" height="72" viewBox="0 0 72 72">
    <defs>
        <style>
            .cls-1{fill:rgba(0,0,0,0)}.cls-2{fill:none;stroke:#454545;stroke-linejoin:round;stroke-width:3px}
        </style>
    </defs>
    <path id="사각형_467" d="M0 0h72v72H0z" class="cls-1" data-name="사각형 467"/>
    <g id="그룹_115" data-name="그룹 115" transform="translate(19 19)">
        <path id="패스_61" d="M514.173 503.054V498l-4.529-1.379a12.958 12.958 0 0 0-.9-2.145l2.234-4.187-3.57-3.57-4.187 2.233a12.967 12.967 0 0 0-2.146-.9l-1.375-4.522h-5.049l-1.379 4.529a12.915 12.915 0 0 0-2.146.9l-4.187-2.233-3.57 3.57 2.232 4.187a12.923 12.923 0 0 0-.9 2.145L480.173 498v5.049l4.53 1.379a12.929 12.929 0 0 0 .9 2.145l-2.232 4.187 3.57 3.57 4.187-2.232a13.024 13.024 0 0 0 2.146.9l1.379 4.53h5.047l1.379-4.53a13.077 13.077 0 0 0 2.146-.9l4.187 2.232 3.57-3.57-2.234-4.187a12.914 12.914 0 0 0 .9-2.145z" class="cls-2" data-name="패스 61" transform="translate(-480.173 -483.53)"/>
        <circle id="타원_12" cx="4.281" cy="4.281" r="4.281" class="cls-2" data-name="타원 12" transform="translate(12.719 12.719)"/>
    </g>
</svg>
