<svg xmlns="http://www.w3.org/2000/svg" width="30" height="34" viewBox="0 0 30 34">
    <defs>
        <style>
            .cls-1{fill:#fff}.cls-2,.cls-3{fill:#6788e6}.cls-2{stroke:#6788e6;stroke-width:1.2px}
        </style>
    </defs>
    <g id="refresh_ic" transform="translate(-44 -335)">
        <path id="사각형_805" d="M0 0h30v34H0z" class="cls-1" data-name="사각형 805" transform="translate(44 335)"/>
        <g id="_" data-name="ㅇㅇ" transform="translate(48 340.698)">
            <g id="그룹_2357" data-name="그룹 2357">
                <path id="패스_120" d="M797.8 671.308a.564.564 0 0 1-.543-.463 12.516 12.516 0 0 1-.251-2.5c0-6.533 5.054-11.848 11.266-11.848a11.039 11.039 0 0 1 8.541 4.121.606.606 0 0 1-.059.825.537.537 0 0 1-.784-.062 9.948 9.948 0 0 0-7.7-3.714 10.438 10.438 0 0 0-10.154 10.678 11.288 11.288 0 0 0 .226 2.251.585.585 0 0 1-.427.7.534.534 0 0 1-.115.012z" class="cls-2" data-name="패스 120" transform="translate(-797.001 -656.5)"/>
            </g>
            <g id="그룹_2358" data-name="그룹 2358" transform="translate(2.77 7.879)">
                <path id="패스_121" d="M815.1 701.74a11.041 11.041 0 0 1-8.494-4.065.607.607 0 0 1 .054-.826.538.538 0 0 1 .785.057 9.95 9.95 0 0 0 7.656 3.664 10.437 10.437 0 0 0 10.152-10.678 11.3 11.3 0 0 0-.222-2.233.585.585 0 0 1 .428-.694.556.556 0 0 1 .66.451 12.506 12.506 0 0 1 .246 2.476c.001 6.533-5.052 11.848-11.265 11.848z" class="cls-2" data-name="패스 121" transform="translate(-806.47 -686.952)"/>
            </g>
            <path id="패스_122" d="M859.362 661.549c.554-.555 1.028-.534 1.231.223l1.379 5.346c.2.757-.287 1.175-1.045.972l-5.291-1.325c-.758-.2-.8-.7-.241-1.25z" class="cls-3" data-name="패스 122" transform="translate(-840.825 -661.862)"/>
            <path id="패스_123" d="M810.949 720.469c.547-.548.437-1.1-.31-1.3l-5.317-1.4c-.747-.2-1.181.26-.981 1.007l1.385 5.3c.2.747.764.864 1.311.317z" class="cls-3" data-name="패스 123" transform="translate(-802.626 -701.213)"/>
        </g>
    </g>
</svg>
