<svg xmlns="http://www.w3.org/2000/svg" id="share_normal_ic" width="70" height="70" viewBox="0 0 70 70">
    <defs>
        <style>
            .cls-1{fill:rgba(255,255,255,0)}.cls-2{fill:#454545}
        </style>
    </defs>
    <path id="사각형_563" d="M0 0h70v70H0z" class="cls-1" data-name="사각형 563"/>
    <g id="그룹_3130" data-name="그룹 3130" transform="translate(20.005 22)">
        <path id="Shape_990" d="M5366.287 292.74a4.687 4.687 0 0 0-3.658 1.766l-9.356-5.217a4.284 4.284 0 0 0-.17-2.535l9.625-5.143a4.593 4.593 0 1 0-1.131-2.981 4.63 4.63 0 0 0 .094.919l-9.9 5.289a4.626 4.626 0 1 0 .411 6.5l9.469 5.28a4.525 4.525 0 0 0-.077.754 4.692 4.692 0 1 0 4.691-4.63z" class="cls-2" data-name="Shape 990" transform="translate(-5344.005 -274)"/>
    </g>
</svg>
