<svg xmlns="http://www.w3.org/2000/svg" id="url_call_ic" width="26" height="26" viewBox="0 0 26 26">
    <defs>
        <style>
            .cls-1{fill:#454545;fill-rule:evenodd}.cls-2{fill:#fff;opacity:0}
        </style>
    </defs>
    <path id="패스_1869" d="M629.327 1052.6c-.092 0-.186 0-.281-.009a10.047 10.047 0 0 1-3.691-1.084 19.76 19.76 0 0 1-6.493-5.083 17.726 17.726 0 0 1-3.138-5.244 7.213 7.213 0 0 1-.534-3.082 2.779 2.779 0 0 1 .9-1.923l1.41-1.411a1.914 1.914 0 0 1 2.817-.009c.264.245.523.51.773.767.125.128.251.257.38.386l1.116 1.116a1.936 1.936 0 0 1 .008 2.872c-.247.247-.486.479-.724.71-.2.2-.405.393-.608.594a7.723 7.723 0 0 0 1.137 1.75 13.929 13.929 0 0 0 3.433 3.115l.026.017a4.341 4.341 0 0 0 .536.3l.162.081 1.322-1.322a1.912 1.912 0 0 1 2.825 0l2.287 2.288a1.91 1.91 0 0 1 0 2.854c-.15.15-.3.3-.45.443-.3.291-.578.566-.849.854a3.005 3.005 0 0 1-2.366 1.021z" class="cls-1" data-name="패스 1869" transform="translate(-611.171 -1030.138)"/>
    <path id="사각형_778" d="M0 0h26v26H0z" class="cls-2" data-name="사각형 778"/>
</svg>
