<svg xmlns="http://www.w3.org/2000/svg" width="104" height="104" viewBox="0 0 104 104">
    <defs>
        <style>
            .cls-1{fill:#fff;stroke:#d4d4d4}.cls-2{fill:rgba(227,186,186,0)}.cls-3,.cls-5{fill:none}.cls-3{stroke:#454545;stroke-linecap:round;stroke-miterlimit:10;stroke-width:3px;fill-rule:evenodd}.cls-4{stroke:none}
        </style>
    </defs>
    <g id="url_call_btn" transform="translate(-476 -743)">
        <g id="타원_111" class="cls-1" data-name="타원 111" transform="translate(476 743)">
            <ellipse cx="52" cy="52" class="cls-4" rx="52" ry="52"/>
            <ellipse cx="52" cy="52" class="cls-5" rx="51.5" ry="51.5"/>
        </g>
        <g id="_04_phone" data-name="04_phone" transform="translate(497 762)">
            <path id="사각형_252" d="M0 0h62.98v67H0z" class="cls-2" data-name="사각형 252"/>
            <path id="패스_254" d="M650.429 1080.117c-.23 0-.463-.007-.7-.023a25.01 25.01 0 0 1-9.193-2.7 49.218 49.218 0 0 1-16.173-12.661 44.149 44.149 0 0 1-7.816-13.062 17.968 17.968 0 0 1-1.33-7.677 6.922 6.922 0 0 1 2.241-4.79l3.512-3.514a4.768 4.768 0 0 1 7.016-.021c.658.611 1.3 1.271 1.926 1.91.31.318.625.64.947.962l2.78 2.78a4.821 4.821 0 0 1 .02 7.154c-.615.615-1.209 1.192-1.8 1.769-.505.49-1.009.979-1.514 1.48a19.243 19.243 0 0 0 2.832 4.36 34.684 34.684 0 0 0 8.551 7.759l.065.043a10.86 10.86 0 0 0 1.335.743l.4.2 3.292-3.291a4.762 4.762 0 0 1 7.037 0l5.7 5.7a4.758 4.758 0 0 1 0 7.107c-.373.373-.748.741-1.12 1.1-.74.725-1.439 1.409-2.114 2.128a7.485 7.485 0 0 1-5.893 2.544z" class="cls-3" data-name="패스 254" transform="translate(-606.462 -1024.088)"/>
        </g>
    </g>
</svg>
