<svg xmlns="http://www.w3.org/2000/svg" width="70" height="70" viewBox="0 0 70 70">
    <defs>
        <style>
            .cls-1{fill:none}.cls-2{clip-path:url(#clip-path)}.cls-3{fill:#454545}.cls-4{fill:rgba(255,255,255,0);opacity:0}
        </style>
        <clipPath id="clip-path">
            <path d="M0 0h70v70H0z" class="cls-1"/>
        </clipPath>
    </defs>
    <g id="withdrawa_ic" class="cls-2">
        <g id="withdrawa_ic-2" data-name="withdrawa_ic" transform="translate(-543.683 -248)">
            <g id="그룹_2318" data-name="그룹 2318" transform="translate(556.684 263)">
                <path id="패스_91" d="M152.5 1404.4a3.59 3.59 0 0 1-3.093-2.061c-.541-.821-.779-1.109-1.327-1.109-.579 0-.887.335-1.5 1.16a3.914 3.914 0 0 1-3.2 2.009 3.957 3.957 0 0 1-3.209-2c-.628-.829-.941-1.166-1.524-1.166s-.914.34-1.565 1.176a4.038 4.038 0 0 1-3.232 1.993 3.862 3.862 0 0 1-3.129-1.923c-.63-.819-1-1.246-1.8-1.246a1.057 1.057 0 0 1-1.056-1.056v-24.3c0-2.111 1.194-3.418 3.227-3.418h23.714c1.954 0 3.168 1.31 3.168 3.418v4.505h3.171c1.043 0 1.055-1.788 1.055-1.864v-11.093c0-1.2-.5-1.305-1.055-1.305h-35.92c-.958 0-2.114.583-2.114 1.305v11.093a1.74 1.74 0 0 0 1.585 1.75 1.057 1.057 0 0 1 0 2.113 3.833 3.833 0 0 1-3.7-3.863v-11.093c0-2.111 2.194-3.418 4.227-3.418h35.92c1.954 0 3.168 1.31 3.168 3.418v11.093c0 2.342-1.3 3.977-3.168 3.977h-4.223a1.056 1.056 0 0 1-1.056-1.057v-5.562c0-1.2-.5-1.305-1.055-1.305h-23.715c-.958 0-1.114.583-1.114 1.305v23.384a4.741 4.741 0 0 1 2.418 1.93c.613.8.9 1.1 1.454 1.1.591 0 .914-.341 1.565-1.177a4.038 4.038 0 0 1 3.232-1.993 3.956 3.956 0 0 1 3.209 2c.627.828.941 1.166 1.524 1.166s.887-.336 1.5-1.16a3.914 3.914 0 0 1 3.2-2.009 3.59 3.59 0 0 1 3.092 2.06c.541.822.779 1.109 1.328 1.109.584 0 .88-.344 1.465-1.188a4.435 4.435 0 0 1 1.9-1.786v-17.876a1.056 1.056 0 0 1 2.113 0v18.737a1.057 1.057 0 0 1-1.056 1.056c-.436 0-.68.293-1.218 1.07a3.813 3.813 0 0 1-3.206 2.101z" class="cls-3" data-name="패스 91" transform="translate(-121 -1364)"/>
            </g>
            <g id="그룹_2633" data-name="그룹 2633" transform="translate(571.864 281.309)">
                <g id="그룹_2431" data-name="그룹 2431" transform="translate(.395)">
                    <path id="패스_181" d="M327.331 510.811a1.044 1.044 0 0 1-.884-.709l-2.106-5.64-2.106 5.567a.931.931 0 0 1-.907.6.95.95 0 0 1-.877-.66l-2.57-7.942a.945.945 0 0 1 1.8-.584l1.738 5.369 2.039-5.412a.945.945 0 0 1 1.769 0l2.039 5.412 1.738-5.37a.945.945 0 0 1 1.8.582l-2.57 8.036a1.03 1.03 0 0 1-.877.751z" class="cls-3" data-name="패스 181" transform="translate(-317.835 -500.787)"/>
                </g>
                <g id="그룹_2432" data-name="그룹 2432" transform="translate(0 2.936)">
                    <path id="패스_182" d="M330.7 508.89h-12.755a.945.945 0 1 1 0-1.89H330.7a.945.945 0 1 1 0 1.89z" class="cls-3" data-name="패스 182" transform="translate(-317 -507)"/>
                </g>
                <g id="그룹_3318" data-name="그룹 3318" transform="translate(-11 -2.064)">
                    <path id="패스_182-2" d="M321.477 509.093l-3.531.007c-.522 0-2.3-.728-2.3-1.307s1.783-.793 2.3-.793l3.531-.007a1.056 1.056 0 0 1 0 2.1z" class="cls-3" data-name="패스 182" transform="translate(-318.181 -506.975)"/>
                </g>
            </g>
        </g>
        <path id="area" d="M0 0h70v70H0z" class="cls-4"/>
    </g>
</svg>
