<svg xmlns="http://www.w3.org/2000/svg" id="prefix__btn_pg_first_on" width="30" height="30" viewBox="0 0 30 30">
    <defs>
        <style>
            .prefix__cls-2{fill:#ed3249}
        </style>
    </defs>
    <g id="prefix__타원_197" data-name="타원 197" style="fill:#fff;stroke:#e8e8e8">
        <circle cx="15" cy="15" r="15" style="stroke:none"/>
        <circle cx="15" cy="15" r="14.5" style="fill:none"/>
    </g>
    <g id="prefix__그룹_6936" data-name="그룹 6936" transform="translate(-288.21 -203.065)">
        <path id="prefix__패스_5188" d="M306.059 221.666a.6.6 0 0 1-.424-.176l-3.425-3.425 3.425-3.424a.6.6 0 0 1 .848.849l-2.575 2.575 2.575 2.576a.6.6 0 0 1-.424 1.025z" class="prefix__cls-2" data-name="패스 5188"/>
        <path id="prefix__패스_5189" d="M302.059 221.666a.6.6 0 0 1-.424-.176l-3.425-3.425 3.425-3.424a.6.6 0 0 1 .848.849l-2.575 2.575 2.575 2.576a.6.6 0 0 1-.424 1.025z" class="prefix__cls-2" data-name="패스 5189"/>
    </g>
</svg>
