<svg xmlns="http://www.w3.org/2000/svg" id="prefix__btn_menu" width="100" height="100" viewBox="0 0 100 100">
    <path id="prefix__사각형_98" d="M0 0H100V100H0z" data-name="사각형 98" style="fill:transparent"/>
    <g id="prefix__그룹_3156" data-name="그룹 3156" transform="translate(-224.25 -172.25)">
        <path id="prefix__패스_5202" d="M291 211.75h-34a1.75 1.75 0 0 1 0-3.5h34a1.75 1.75 0 0 1 0 3.5z" data-name="패스 5202"/>
        <path id="prefix__패스_5203" d="M291 223.75h-34a1.75 1.75 0 0 1 0-3.5h34a1.75 1.75 0 0 1 0 3.5z" data-name="패스 5203"/>
        <path id="prefix__패스_5204" d="M291 235.75h-34a1.75 1.75 0 0 1 0-3.5h34a1.75 1.75 0 0 1 0 3.5z" data-name="패스 5204"/>
    </g>
</svg>
