<svg xmlns="http://www.w3.org/2000/svg" id="prefix__icon_ser_brunch_on" width="50" height="50" viewBox="0 0 50 50">
    <path id="prefix__사각형_492" d="M0 0H50V50H0z" data-name="사각형 492" style="fill:transparent"/>
    <path id="prefix__패스_4038" d="M929.923 480.749a1.125 1.125 0 0 0-1.591-.068l-1.051.966c-.02-.018-.036-.039-.056-.058a5.631 5.631 0 0 0-7.941.257 13.9 13.9 0 0 1-9.365 3.42 16.069 16.069 0 0 1-9.669-3.687 5.647 5.647 0 0 0-7.087-.467l-1.136-1.043a1.126 1.126 0 0 0-1.523 1.658l1.119 1.029a5.576 5.576 0 0 0 .03 5.914 5.581 5.581 0 0 0-1.79 1.056l-1.041-.956a1.126 1.126 0 1 0-1.523 1.657l1.2 1.1a5.628 5.628 0 0 0 1.225 6.522 27.285 27.285 0 0 0 17.357 6.721 25.129 25.129 0 0 0 17.58-6.98 5.636 5.636 0 0 0 .84-6.5 17.837 17.837 0 0 0 2-1.743 5.632 5.632 0 0 0 1.069-6.023l1.288-1.184a1.125 1.125 0 0 0 .065-1.591zm-6.911 15.508a22.711 22.711 0 0 1-15.933 6.265 24.837 24.837 0 0 1-15.814-6.109 3.373 3.373 0 0 1 2.312-5.833 3.388 3.388 0 0 1 2.312.908 16.547 16.547 0 0 0 2.342 1.673c.1.747.132 2.258-1.125 2.9a1.126 1.126 0 1 0 1.029 2 4.45 4.45 0 0 0 2.361-3.738 16.916 16.916 0 0 0 5.224 1.37 3.355 3.355 0 0 1-.268 2.831 1.126 1.126 0 1 0 1.984 1.066 5.639 5.639 0 0 0 .625-3.864 16.861 16.861 0 0 0 5.152-1.094 3.089 3.089 0 0 1 1.157 2.785 1.126 1.126 0 0 0 1.007 1.233.99.99 0 0 0 .114.005 1.126 1.126 0 0 0 1.12-1.012 5.206 5.206 0 0 0-1.233-4.03 12.688 12.688 0 0 0 2.7-1.972 3.378 3.378 0 0 1 4.938 4.61zm2.839-8.247a15.845 15.845 0 0 1-1.788 1.555 5.628 5.628 0 0 0-7.619.528 13.9 13.9 0 0 1-9.365 3.421 16.061 16.061 0 0 1-9.669-3.688 5.588 5.588 0 0 0-3.062-1.443c-.126-.11-.219-.195-.244-.217a3.378 3.378 0 0 1 4.625-4.926 18.159 18.159 0 0 0 11.189 4.279 15.864 15.864 0 0 0 10.995-4.118 3.378 3.378 0 1 1 4.938 4.61z" data-name="패스 4038" transform="translate(-883.934 -464.773)" style="fill:#fff"/>
</svg>
