<svg xmlns="http://www.w3.org/2000/svg" id="prefix__icon_ser_tea_off" width="50" height="50" viewBox="0 0 50 50">
    <path id="prefix__사각형_489" d="M0 0H50V50H0z" data-name="사각형 489" style="fill:transparent"/>
    <path id="prefix__패스_4036" d="M736.07 479.695h-.976a12.806 12.806 0 0 0-5.929-9.972l2.976-5.789a1.132 1.132 0 0 0-2.014-1.035l-3.01 5.857a10.515 10.515 0 0 0-3.483-.6h-2.9c-6 0-10.94 5.08-11.462 11.536h-.976a1.132 1.132 0 0 0 0 2.264h1.078q.393 2.708.793 5.414l.032.216h-.279a1.132 1.132 0 0 0-1.12 1.314l1.811 11.238a1.133 1.133 0 0 0 1.118.953h.375c.119.911.238 1.824.349 2.732l.016.134c.267 2.21.765 6.323 4.208 6.323h11.01c3.253 0 3.783-3.724 4.008-5.314q.276-1.939.555-3.875h.384a1.132 1.132 0 0 0 1.118-.953l1.811-11.238a1.132 1.132 0 0 0-1.118-1.312h-.261l.81-5.631h1.075a1.132 1.132 0 0 0 0-2.264zm-3.246 0h-8.787l4.089-7.954a10.541 10.541 0 0 1 4.698 7.954zm-12.092-9.271h2.9a8.268 8.268 0 0 1 2.432.377l-4.573 8.895h-9.951c.504-5.207 4.432-9.273 9.193-9.273zm8.722 34.226c-.4 2.8-.993 3.369-1.767 3.369h-11.01c-1.326 0-1.684-2.049-1.96-4.331l-.016-.136c-.1-.818-.207-1.639-.314-2.459h15.577q-.256 1.778-.51 3.557zm2.216-5.821h-18.976l-1.446-8.975h21.869zm.228-11.239h-19.413l-.081-.548q-.375-2.543-.747-5.083h21.05z" data-name="패스 4036" transform="translate(-697.162 -461.283)" style="fill:#999"/>
</svg>
