<svg xmlns="http://www.w3.org/2000/svg" width="40" height="40" viewBox="0 0 40 40">
    <defs>
        <style>
            .prefix__cls-2{isolation:isolate}
        </style>
    </defs>
    <g id="prefix__icon_num_6" transform="translate(-335 -943)">
        <rect id="prefix__사각형_456" width="40" height="40" data-name="사각형 456" rx="20" transform="translate(335 943)" style="fill:#9e571c"/>
        <g id="prefix___6" class="prefix__cls-2" data-name="6" transform="translate(349.167 954.666)">
            <g id="prefix__그룹_6530" class="prefix__cls-2" data-name="그룹 6530">
                <path id="prefix__패스_4881" d="M679.945 393.184a8.875 8.875 0 0 1 2.1.232 6.241 6.241 0 0 1 1.612.608 1.112 1.112 0 0 1 .5.618 1.055 1.055 0 0 1-.08.758 1 1 0 0 1-.548.56 1.12 1.12 0 0 1-.83-.048 5.923 5.923 0 0 0-1.328-.453 7.148 7.148 0 0 0-1.518-.152q-3.708 0-4.082 5.787a3.774 3.774 0 0 1 1.7-1.412 5.683 5.683 0 0 1 2.355-.5 6 6 0 0 1 2.182.375 4.52 4.52 0 0 1 1.647 1.072 4.8 4.8 0 0 1 1.038 1.68 6.334 6.334 0 0 1 .362 2.195v.372a5.757 5.757 0 0 1-.41 2.207 4.836 4.836 0 0 1-1.165 1.7 5.411 5.411 0 0 1-1.822 1.108 6.667 6.667 0 0 1-2.343.395 5.315 5.315 0 0 1-4.363-1.818 8.086 8.086 0 0 1-1.493-5.25v-.653a17.633 17.633 0 0 1 .488-4.527 8 8 0 0 1 1.353-2.883 4.73 4.73 0 0 1 2.053-1.528 7.384 7.384 0 0 1 2.592-.443zm-.583 8.05a4.129 4.129 0 0 0-1.518.257 3.146 3.146 0 0 0-1.095.7 2.83 2.83 0 0 0-.665 1.038 3.521 3.521 0 0 0-.223 1.248v.185a3.53 3.53 0 0 0 .91 2.555 3.308 3.308 0 0 0 2.5.947 3.627 3.627 0 0 0 2.567-.865 3.252 3.252 0 0 0 .933-2.518v-.163q-.005-3.386-3.41-3.384z" data-name="패스 4881" transform="translate(-673.458 -393.184)" style="fill:#fff"/>
            </g>
        </g>
    </g>
</svg>
