<svg xmlns="http://www.w3.org/2000/svg" id="prefix__icon_clock" width="36.001" height="36" viewBox="0 0 36.001 36">
    <defs>
        <style>
            .prefix__cls-2{fill:#999}
        </style>
    </defs>
    <path id="prefix__사각형_594" d="M0 0H36V36H0z" data-name="사각형 594" transform="translate(.001)" style="fill:transparent"/>
    <g id="prefix__icon_clock-2" data-name="icon_clock" transform="translate(-660.013 -365.5)">
        <path id="prefix__패스_5220" d="M673.013 397.5a13 13 0 1 1 13-13 13.015 13.015 0 0 1-13 13zm0-24a11 11 0 1 0 11 11 11.013 11.013 0 0 0-11-11z" class="prefix__cls-2" data-name="패스 5220"/>
        <path id="prefix__패스_5221" d="M677.794 387.887a.994.994 0 0 1-.446-.106l-4.8-2.4a1 1 0 0 1-.552-.894V377.3a1 1 0 0 1 2 0v6.574l4.243 2.123a1 1 0 0 1-.449 1.895z" class="prefix__cls-2" data-name="패스 5221"/>
    </g>
</svg>
