<svg xmlns="http://www.w3.org/2000/svg" id="prefix__icon_ser_ade_off" width="50" height="50" viewBox="0 0 50 50">
    <defs>
        <style>
            .prefix__cls-2{fill:#999}
        </style>
    </defs>
    <path id="prefix__사각형_490" d="M0 0H50V50H0z" data-name="사각형 490" style="fill:transparent"/>
    <g id="prefix__그룹_5377" data-name="그룹 5377" transform="translate(-753.51 -461.283)">
        <path id="prefix__패스_4030" d="M778.129 500.783a2.92 2.92 0 1 0-.647 4.081 2.925 2.925 0 0 0 .647-4.081zm-1.822 2.463a.921.921 0 1 1 .2-1.288.924.924 0 0 1-.2 1.288z" class="prefix__cls-2" data-name="패스 4030" transform="translate(-1.069 -3.954)"/>
        <path id="prefix__패스_4031" d="M783.09 497.254a2.921 2.921 0 1 0 4.08.647 2.924 2.924 0 0 0-4.08-.647zm2.257 3.11a.921.921 0 1 1 .205-1.287.922.922 0 0 1-.205 1.287z" class="prefix__cls-2" data-name="패스 4031" transform="translate(-2.104 -3.648)"/>
        <path id="prefix__패스_4032" d="M792.418 479.695h-.976a12.8 12.8 0 0 0-5.93-9.972l2.977-5.789a1.132 1.132 0 0 0-2.014-1.035l-3.011 5.857a10.511 10.511 0 0 0-3.482-.6h-2.9c-6 0-10.939 5.08-11.461 11.536h-.976a1.132 1.132 0 0 0 0 2.264h1.078q.393 2.708.792 5.414c.8 5.388 1.62 10.959 2.289 16.453l.015.133c.268 2.21.766 6.324 4.209 6.324h11.01c3.254 0 3.782-3.724 4.009-5.314q1.141-8.045 2.3-16.085l1-6.925h1.075a1.132 1.132 0 1 0 0-2.264zm-3.245 0h-8.788l4.088-7.954a10.543 10.543 0 0 1 4.7 7.954zm-12.094-9.271h2.9a8.261 8.261 0 0 1 2.431.377l-4.572 8.895h-9.952c.506-5.207 4.434-9.273 9.194-9.273zm8.721 34.226c-.4 2.8-.993 3.369-1.766 3.369h-11.01c-1.326 0-1.685-2.049-1.961-4.333l-.016-.134c-.671-5.523-1.5-11.108-2.295-16.51l-.1-.661a10.55 10.55 0 0 1 6.833 1.962c1.877 1.293 6.106 3.821 10.482 3.821a10.494 10.494 0 0 0 1.637-.127q-.904 6.305-1.804 12.613zm2.3-16.089l-.155 1.085c-3.049.783-6.459-.5-8.8-1.734a11.459 11.459 0 0 1 9.059-.1zm.44-3.06a13.81 13.81 0 0 0-11.685 1.037l-.088-.06a12.754 12.754 0 0 0-8.447-2.338c-.107-.726-.216-1.455-.321-2.181h21.051z" class="prefix__cls-2" data-name="패스 4032"/>
    </g>
</svg>
