<svg xmlns="http://www.w3.org/2000/svg" id="prefix__icon_kakao" width="36.001" height="36" viewBox="0 0 36.001 36">
    <path id="prefix__사각형_597" d="M0 0H36V36H0z" data-name="사각형 597" transform="translate(.001)" style="fill:transparent"/>
    <path id="prefix__패스_5223" d="M682.519 400.429l1.21-6.278a10.041 10.041 0 0 1-5.337-8.533c0-5.822 5.832-10.558 13-10.558s13 4.737 13 10.559-5.832 10.559-13 10.559a16.242 16.242 0 0 1-2.033-.131zm8.873-23.369c-6.066 0-11 3.839-11 8.558 0 2.862 1.838 5.525 4.918 7.123l.662.344-.607 3.144 3.544-2.27.373.058a14.309 14.309 0 0 0 2.11.161c6.064 0 11-3.84 11-8.559s-4.936-8.559-11-8.559z" data-name="패스 5223" transform="translate(-678.392 -368.56)" style="fill:#999"/>
</svg>
