<svg xmlns="http://www.w3.org/2000/svg" id="prefix__icon_ser_desert_on" width="50" height="50" viewBox="0 0 50 50">
    <path id="prefix__사각형_491" d="M0 0H50V50H0z" data-name="사각형 491" style="fill:transparent"/>
    <path id="prefix__패스_4037" d="M862.131 488.28a10.111 10.111 0 0 0-3.1-7.288l-.023-.023a10.909 10.909 0 0 0-15.073 0l-1.18 1.144-1.179-1.144a10.909 10.909 0 0 0-15.073 0l-.023.023a10.116 10.116 0 0 0 .023 14.6l1.281 1.242a4.263 4.263 0 0 0 .676 5.266l.025.025a4.6 4.6 0 0 0 5.487.66 13.779 13.779 0 0 0 17.568 0 4.609 4.609 0 0 0 5.486-.66l.025-.025a4.261 4.261 0 0 0 .676-5.266l1.281-1.242a10.118 10.118 0 0 0 3.124-7.312zm-16.592-5.753a8.587 8.587 0 0 1 11.843-.02l.02.02a7.958 7.958 0 0 1 0 11.507l-1.179 1.143-3.149-3.054 1.178-1.143a3.733 3.733 0 0 0 .025-5.374l-.025-.025a4.026 4.026 0 0 0-5.563 0l-1.18 1.143-3.149-3.053 1.179-1.143zm5.929 8.038l-2.354-2.283 1.18-1.144a1.7 1.7 0 0 1 2.336-.016l.017.016a1.58 1.58 0 0 1 0 2.284zm-21.362 10.019l-.018-.018a2.111 2.111 0 0 1 0-3.053l7.912-7.674 3.149 3.053-7.917 7.677a2.28 2.28 0 0 1-3.125.015zm2.754-11.162a1.58 1.58 0 0 1 0-2.284l.017-.016a1.7 1.7 0 0 1 2.336.015l1.179 1.144-2.353 2.284zm12.144 7.211a4.576 4.576 0 0 1-4.5 0l2.252-2.183zm-2.251 7.113a11.315 11.315 0 0 1-7.069-2.439l3.174-3.082a6.908 6.908 0 0 0 7.788 0l3.175 3.081a11.315 11.315 0 0 1-7.066 2.439zm12.665-3.179l-.018.018a2.268 2.268 0 0 1-3.125-.018L836.82 485.58a4.026 4.026 0 0 0-5.563 0l-.025.025a3.732 3.732 0 0 0 .025 5.374l1.178 1.143-3.149 3.054-1.179-1.143a7.958 7.958 0 0 1 0-11.507l.02-.02a8.588 8.588 0 0 1 11.843.019l15.451 14.987a2.112 2.112 0 0 1 0 3.053z" data-name="패스 4037" transform="translate(-817.378 -465.947)" style="fill:#fff"/>
</svg>
