<svg xmlns="http://www.w3.org/2000/svg" id="prefix__icon_sns_blog_on" width="100" height="100" viewBox="0 0 100 100">
    <defs>
        <style>
            .prefix__cls-2{fill:#ed3249}
        </style>
    </defs>
    <path id="prefix__사각형_52" d="M0 0H100V100H0z" data-name="사각형 52" style="fill:transparent"/>
    <g id="prefix__그룹_3647" data-name="그룹 3647" transform="translate(28.333 31.667)">
        <path id="prefix__패스_2368" d="M55.379 152.863H25.734a6.856 6.856 0 0 0-6.842 6.871v16.3a6.852 6.852 0 0 0 6.842 6.865h10.213l3.486 5.672a.967.967 0 0 0 .11.164 1.169 1.169 0 0 0 2.023.008.7.7 0 0 0 .118-.172l3.483-5.672h10.212a6.857 6.857 0 0 0 6.846-6.865v-16.3a6.862 6.862 0 0 0-6.846-6.871zm-26.862 20.109a2.543 2.543 0 0 1-2.229-1.144v.864h-2.679v-11.05h2.648v4.209a3.528 3.528 0 0 1 2.26-1.049c3.6 0 3.736 4.037 3.736 4.037a3.913 3.913 0 0 1-3.736 4.133zm8.356-7.425v7.145h-2.558v-6.539c0-2.258-1.207-2.2-1.207-2.2v-2.562c3.877-.003 3.765 4.157 3.765 4.157zm10.737 3.384c0 4.033-4.485 4.041-4.485 4.041-4.524 0-4.385-4.041-4.385-4.041 0-4.091 4.385-4.091 4.385-4.091 4.633.001 4.485 4.091 4.485 4.091zm9.9 3.662a3.85 3.85 0 0 1-3.876 4.142H52.6v-2.349h.641c1.878 0 1.69-1.94 1.69-1.94v-.618a3.054 3.054 0 0 1-2.331 1.012c-3.689 0-3.648-3.937-3.648-3.937 0-4.225 3.751-4.062 3.751-4.062a2.9 2.9 0 0 1 2.229 1.011v-.752h2.578z" class="prefix__cls-2" data-name="패스 2368" transform="translate(-18.892 -152.863)"/>
        <path id="prefix__패스_2369" d="M37.356 163.549a1.7 1.7 0 1 0 1.7 1.7 1.7 1.7 0 0 0-1.7-1.7z" class="prefix__cls-2" data-name="패스 2369" transform="translate(-13.121 -149.184)"/>
        <path id="prefix__패스_2370" d="M44.958 163.549a1.7 1.7 0 1 0 1.7 1.7 1.7 1.7 0 0 0-1.7-1.7z" class="prefix__cls-2" data-name="패스 2370" transform="translate(-10.505 -149.184)"/>
        <path id="prefix__패스_2371" d="M26.052 163.549a1.7 1.7 0 1 0 1.7 1.7 1.7 1.7 0 0 0-1.7-1.7z" class="prefix__cls-2" data-name="패스 2371" transform="translate(-17.013 -149.184)"/>
    </g>
</svg>
