<svg xmlns="http://www.w3.org/2000/svg" id="prefix__icon_ser_coffee_on" width="50" height="50" viewBox="0 0 50 50">
    <path id="prefix__사각형_488" d="M0 0H50V50H0z" data-name="사각형 488" style="fill:transparent"/>
    <path id="prefix__패스_4039" d="M667.131 480.347h-1.708v-2.635a1.108 1.108 0 0 0-1.108-1.108h-28.7a1.108 1.108 0 0 0-1.108 1.108v14.752a13.278 13.278 0 0 0 13.262 13.262h4.391a13.278 13.278 0 0 0 13.172-11.759h1.8a6.81 6.81 0 0 0 0-13.62zm-11.261 3.717l1.566 1.245v3.854h-3.13v-3.853zm7.338 8.4a11.06 11.06 0 0 1-11.048 11.047h-4.391a11.059 11.059 0 0 1-11.047-11.047V478.82h18.041v3.294l-2.254 1.794a1.107 1.107 0 0 0-.418.867v5.5a1.108 1.108 0 0 0 1.108 1.108h5.345a1.108 1.108 0 0 0 1.108-1.108v-5.5a1.11 1.11 0 0 0-.418-.867l-2.255-1.794v-3.294h6.23zm3.923-.712h-1.708v-9.19h1.708a4.595 4.595 0 0 1 0 9.19z" data-name="패스 4039" transform="translate(-627.007 -463.364)" style="fill:#fff"/>
</svg>
