<svg xmlns="http://www.w3.org/2000/svg" width="75" height="40" viewBox="0 0 75 40">
    <defs>
        <style>
            .prefix__cls-2{isolation:isolate}.prefix__cls-3{fill:#fff}
        </style>
    </defs>
    <g id="prefix__icon_gyeongui" transform="translate(-392 -943)">
        <rect id="prefix__사각형_459" width="75" height="40" data-name="사각형 459" rx="20" transform="translate(392 943)" style="fill:#7dc4a5"/>
        <g id="prefix__경의" class="prefix__cls-2" transform="translate(410.335 953)">
            <g id="prefix__그룹_6537" class="prefix__cls-2" data-name="그룹 6537">
                <path id="prefix__패스_4886" d="M715.078 383.373c-1.307 3.363-4.412 5.72-8.965 7.052l-.957-1.915c4.95-1.377 7.682-3.97 8.1-7.26h-7v-1.938h9.573a11.746 11.746 0 0 1-.188 2.1h4.343v-3.618h2.4v12.4h-2.4v-2.428h-5.113V385.8h5.113v-2.428zm7.447 11.232c0 2.592-2.777 4.178-7.048 4.178s-7.028-1.587-7.028-4.178c0-2.568 2.755-4.157 7.028-4.157s7.047 1.588 7.047 4.152zm-2.382 0c0-1.448-1.8-2.265-4.667-2.265-2.848 0-4.647.817-4.647 2.265 0 1.47 1.8 2.287 4.647 2.287 2.87-.001 4.667-.817 4.667-2.292z" class="prefix__cls-3" data-name="패스 4886" transform="translate(-705.156 -377.771)"/>
                <path id="prefix__패스_4887" d="M717.252 392.465a96.454 96.454 0 0 0 13.565-.7l.162 1.75a73.4 73.4 0 0 1-13.422.933zm12.443-8.127c0 2.988-2.452 5.067-5.743 5.067s-5.718-2.078-5.718-5.067 2.427-5.065 5.718-5.065 5.748 2.077 5.748 5.065zm-9.1 0a3.058 3.058 0 0 0 3.362 3.013c1.962 0 3.387-1.192 3.387-3.013 0-1.843-1.425-3.01-3.387-3.01-1.943 0-3.367 1.172-3.367 3.01zm13.915-6.558v21.128h-2.43V377.78z" class="prefix__cls-3" data-name="패스 4887" transform="translate(-697.092 -377.78)"/>
            </g>
        </g>
    </g>
</svg>
