<svg xmlns="http://www.w3.org/2000/svg" id="prefix__icon_call" width="36" height="36" viewBox="0 0 36 36">
    <path id="prefix__사각형_596" d="M0 0H36V36H0z" data-name="사각형 596" style="fill:transparent"/>
    <path id="prefix__패스_5222" d="M699.954 400.769c-.1 0-.2 0-.3-.013a23.855 23.855 0 0 1-10.376-3.685 23.52 23.52 0 0 1-7.194-7.2 23.846 23.846 0 0 1-3.682-10.395 3.3 3.3 0 0 1 3-3.593c.094-.008.184-.012.274-.012h3.456a3.316 3.316 0 0 1 3.29 2.835 13.9 13.9 0 0 0 .747 3.022 3.31 3.31 0 0 1-.742 3.474l-.91.908a17.392 17.392 0 0 0 5.478 5.48l.908-.908a3.312 3.312 0 0 1 3.484-.747 13.805 13.805 0 0 0 3.006.746 3.3 3.3 0 0 1 2.847 3.346v3.429a3.305 3.305 0 0 1-3.286 3.313zm-14.8-22.894h-.012l-3.57.005a1.3 1.3 0 0 0-1.178 1.407 21.828 21.828 0 0 0 3.374 9.508 21.564 21.564 0 0 0 6.591 6.594 21.868 21.868 0 0 0 9.488 3.377h.1a1.3 1.3 0 0 0 1.292-1.306v-3.45-.057a1.3 1.3 0 0 0-1.118-1.29 15.7 15.7 0 0 1-3.437-.853 1.3 1.3 0 0 0-1.374.291l-1.454 1.455a1 1 0 0 1-1.2.162 19.394 19.394 0 0 1-7.268-7.269 1 1 0 0 1 .163-1.2l1.457-1.454a1.3 1.3 0 0 0 .286-1.365 15.842 15.842 0 0 1-.855-3.451 1.3 1.3 0 0 0-1.282-1.104zm13.637 7.984a1 1 0 0 1-.981-.808 4.726 4.726 0 0 0-3.748-3.749 1 1 0 0 1 .383-1.963 6.719 6.719 0 0 1 5.328 5.328 1 1 0 0 1-.79 1.174 1.049 1.049 0 0 1-.189.018zm4.6-.015a1 1 0 0 1-.994-.889 9.291 9.291 0 0 0-8.25-8.241 1 1 0 0 1 .221-1.987 11.282 11.282 0 0 1 10.018 10.005 1 1 0 0 1-.883 1.106 1.066 1.066 0 0 1-.113.006z" data-name="패스 5222" transform="translate(-678.393 -368.721)" style="fill:#999"/>
</svg>
