<svg xmlns="http://www.w3.org/2000/svg" id="prefix__icon_hand" width="86" height="64" viewBox="0 0 86 64">
    <defs>
        <clipPath id="prefix__clip-path">
            <path id="prefix__사각형_605" d="M0 0H86V64H0z" data-name="사각형 605" transform="translate(36 1149)" style="fill:#fff;stroke:#707070"/>
        </clipPath>
        <style>
            .prefix__cls-3{fill:#999}
        </style>
    </defs>
    <g id="prefix__icon_hand-2" data-name="icon_hand" transform="translate(-36 -1149)">
        <g id="prefix__그룹_6967" data-name="그룹 6967" transform="translate(-428.724 601.22)">
            <path id="prefix__패스_5226" d="M522.457 562.543a1 1 0 0 0-1.414 1.414l2.293 2.293h-30.172l2.293-2.293a1 1 0 0 0-1.414-1.414l-4.707 4.707 4.707 4.707a1 1 0 0 0 1.414-1.414l-2.293-2.293h30.172l-2.293 2.293a1 1 0 1 0 1.414 1.414l4.707-4.707z" class="prefix__cls-3" data-name="패스 5226"/>
            <g id="prefix__그룹_6966" data-name="그룹 6966">
                <g id="prefix__그룹_6965" data-name="그룹 6965">
                    <path id="prefix__패스_5227" d="M529.234 581.46a4.749 4.749 0 0 0-2.65.806 4.766 4.766 0 0 0-7.149-2.383 4.776 4.776 0 0 0-4.5-3.189 4.729 4.729 0 0 0-2.383.641v-10.789a4.766 4.766 0 0 0-9.532 0V597.4l-6.551-3.276a7.184 7.184 0 0 0-3.2-.753 4.561 4.561 0 0 0-3.217 7.785l15.408 15.408a18.319 18.319 0 0 0 13.044 5.4A15.507 15.507 0 0 0 534 606.481v-20.255a4.771 4.771 0 0 0-4.766-4.766zm2.383 25.021a13.122 13.122 0 0 1-13.109 13.106 15.939 15.939 0 0 1-11.354-4.706l-15.41-15.408a2.176 2.176 0 0 1 1.532-3.715 4.792 4.792 0 0 1 2.13.5l8.276 4.136a1.191 1.191 0 0 0 1.723-1.065v-32.783a2.383 2.383 0 0 1 4.766 0v25.637a1.192 1.192 0 1 0 2.383 0V581.46a2.382 2.382 0 1 1 4.765 0v10.723a1.192 1.192 0 1 0 2.383 0v-8.34a2.383 2.383 0 0 1 4.766 0v8.34a1.191 1.191 0 1 0 2.383 0v-5.957a2.383 2.383 0 0 1 4.766 0z" class="prefix__cls-3" data-name="패스 5227"/>
                </g>
                <path id="prefix__패스_5228" d="M531.617 606.481a13.122 13.122 0 0 1-13.109 13.106 15.939 15.939 0 0 1-11.354-4.706l-15.41-15.408a2.176 2.176 0 0 1 1.532-3.715 4.792 4.792 0 0 1 2.13.5l8.276 4.136a1.191 1.191 0 0 0 1.723-1.065v-32.783a2.383 2.383 0 0 1 4.766 0v25.637a1.192 1.192 0 1 0 2.383 0V581.46a2.382 2.382 0 1 1 4.765 0v10.723a1.192 1.192 0 1 0 2.383 0v-8.34a2.383 2.383 0 0 1 4.766 0v8.34a1.191 1.191 0 1 0 2.383 0v-5.957a2.383 2.383 0 0 1 4.766 0z" data-name="패스 5228" style="fill:#eee"/>
            </g>
        </g>
    </g>
</svg>
