<svg xmlns="http://www.w3.org/2000/svg" width="120" height="34" viewBox="0 0 120 34">
    <defs>
        <style>
            .prefix__cls-1{isolation:isolate}.prefix__cls-3{fill:#828387}.prefix__cls-4{fill:#bebebe}
        </style>
    </defs>
    <g id="prefix__logo_gray" class="prefix__cls-1">
        <path id="prefix__사각형_581" d="M0 0H120V34H0z" data-name="사각형 581" style="fill:transparent"/>
        <g id="prefix__그룹_7137" class="prefix__cls-1" data-name="그룹 7137" transform="translate(0 .4)">
            <path id="prefix__패스_4" d="M626.066 378.814h2.773a2.238 2.238 0 0 1 2.235 2.235v3.784a2.514 2.514 0 1 0 5.027 0v-3.784a7.271 7.271 0 0 0-7.262-7.263h-2.773a2.514 2.514 0 0 0 0 5.027z" class="prefix__cls-3" data-name="패스 4" transform="translate(-623.134 -370.226)"/>
            <path id="prefix__패스_5" d="M639.54 378.814h2.773a2.238 2.238 0 0 1 2.235 2.235v3.784a2.514 2.514 0 1 0 5.027 0v-3.784a7.271 7.271 0 0 0-7.262-7.263h-2.773a2.514 2.514 0 0 0 0 5.027z" class="prefix__cls-3" data-name="패스 5" transform="translate(-623.134 -370.226)"/>
            <path id="prefix__패스_6" d="M650.359 394.022a2.523 2.523 0 0 0-1.94.106 21.653 21.653 0 0 1-8.269 1.773v-3.318a2.539 2.539 0 0 0-5.077-.1v3.349a23.179 23.179 0 0 1-8.256-1.983 2.539 2.539 0 0 0-2.287 4.534l.064.031c2.45 1.193 6.79 2.616 13.547 2.616 6.309 0 10.266-1.263 12.474-2.323a2.539 2.539 0 0 0-.256-4.683z" class="prefix__cls-3" data-name="패스 6" transform="translate(-623.134 -370.226)"/>
            <path id="prefix__패스_7" d="M679.444 374.742a2.355 2.355 0 1 0-4.593 1.043l.006.026a50.665 50.665 0 0 1 .95 10.447 69.671 69.671 0 0 1-.97 11.5 2.355 2.355 0 1 0 4.627.883 73.229 73.229 0 0 0 1.053-12.385 55.352 55.352 0 0 0-1.073-11.514z" class="prefix__cls-3" data-name="패스 7" transform="translate(-623.148 -370.226)"/>
            <path id="prefix__패스_5326" d="M669.375 393.319a2.452 2.452 0 0 0-1.77.642 5.317 5.317 0 0 1-4.9 1.419 3.2 3.2 0 0 1-2.235-2.086 3.407 3.407 0 0 1-.139-1.664c.185-1.147 1.1-2 2.588-3.306a14.16 14.16 0 0 0 3.452-3.926 7.378 7.378 0 0 0 .352-6.856 9.55 9.55 0 0 0-3.187-3.447 7.9 7.9 0 0 0-2.313 4.384 4.863 4.863 0 0 1 1.059 1.172 2.655 2.655 0 0 1-.259 2.455 10.218 10.218 0 0 1-2.343 2.521c-1.66 1.455-3.726 3.268-4.2 6.222a8.338 8.338 0 0 0 .353 4.073 8.158 8.158 0 0 0 5.77 5.25 10.024 10.024 0 0 0 2.257.258 10.514 10.514 0 0 0 7.073-2.84 2.459 2.459 0 0 0-1.553-4.271z" class="prefix__cls-3" data-name="패스 5326" transform="translate(-623.143 -370.226)"/>
            <path id="prefix__패스_5327" d="M659.818 372.642a2.459 2.459 0 1 0-.978 4.82 4.853 4.853 0 0 1 2.378 1.017 7.9 7.9 0 0 1 2.313-4.384 9.564 9.564 0 0 0-3.713-1.453z" class="prefix__cls-4" data-name="패스 5327" transform="translate(-623.143 -370.226)"/>
            <path id="prefix__패스_5328" d="M726.177 383.021c-.311.072-.623.145-.939.2a8.8 8.8 0 0 1-2.776.154c-.387-.058-.823-.211-.925-.422a.236.236 0 0 1 0-.188c.092-.276.434-.538 1.018-.777a9.542 9.542 0 0 1 .991-.32l.379-.109c.4-.119.808-.226 1.216-.332a15.033 15.033 0 0 0 2.812-.933 4.074 4.074 0 0 0 2.171-5.185 5.336 5.336 0 0 0-4.609-3.628 10.4 10.4 0 0 0-6.25 1.542 1.842 1.842 0 0 0-.858 2.392 1.957 1.957 0 0 0 2.133 1.2 6.225 6.225 0 0 0 1.285-.358 7.394 7.394 0 0 1 .829-.266c.145-.036.3-.08.461-.126.851-.242 1.817-.517 2.412.048a.478.478 0 0 1 .1.616c-.288.544-.81.656-1.416.788-.2.044-.407.088-.606.149-.325.1-.653.193-.98.286a18.7 18.7 0 0 0-2.685.914 4.3 4.3 0 0 0-2.7 3.552c-.274 2.656 1.545 4.744 4.527 5.2a13.342 13.342 0 0 0 1.751.152 13.124 13.124 0 0 0 4-.572 16.39 16.39 0 0 0-1.341-3.977z" class="prefix__cls-3" data-name="패스 5328" transform="translate(-623.164 -370.226)"/>
            <path id="prefix__패스_5329" d="M729.747 386.129a2.084 2.084 0 0 0 1.314-2.638l-.022-.062a2.33 2.33 0 0 0-3.094-.99c-.112.04-.223.081-.3.115a1.146 1.146 0 0 0-.234.083l-.081.034-.293.108c-.184.065-.37.13-.559.178-.1.025-.2.041-.3.064a16.39 16.39 0 0 1 1.34 3.979 13.026 13.026 0 0 0 2.229-.871z" class="prefix__cls-4" data-name="패스 5329" transform="translate(-623.164 -370.226)"/>
            <path id="prefix__패스_11" d="M742.454 376.509a2.081 2.081 0 0 0-1.531-.524l-1.533.123c-.255-1.63-.616-3-.638-3.077a2.122 2.122 0 0 0-4.1 1.1 25.507 25.507 0 0 1 .732 4.322 35.267 35.267 0 0 1-.277 4.959 2.121 2.121 0 0 0 4.188.674l.007-.046c0-.022.234-1.8.313-3.7l1.538-.119a2.127 2.127 0 0 0 1.3-3.711z" class="prefix__cls-3" data-name="패스 11" transform="translate(-623.164 -370.226)"/>
            <path id="prefix__패스_12" d="M731.821 388.891c-.2 0-.392.007-.591.019-4.257.277-7.51 3.472-7.265 7.137.234 3.494 3.563 6.153 7.563 6.153.2 0 .393-.007.59-.02 4.258-.277 7.51-3.472 7.265-7.137-.233-3.493-3.563-6.152-7.562-6.152zm2.436 7.843a3.851 3.851 0 0 1-2.435 1.011c-.1.007-.2.01-.294.01-1.588 0-2.99-.916-3.063-2a1.848 1.848 0 0 1 .627-1.4 3.864 3.864 0 0 1 2.435-1.011c.1-.006.2-.01.294-.01 1.587 0 2.99.916 3.063 2a1.841 1.841 0 0 1-.627 1.4z" class="prefix__cls-3" data-name="패스 12" transform="translate(-623.164 -370.226)"/>
            <path id="prefix__패스_13" d="M692.55 382.2c.333-.388.679-.874 1.013-1.344l.27-.379c.066.074.131.146.148.163.186.2.369.4.551.6.35.385.712.782 1.091 1.156l.2.2a12.108 12.108 0 0 0 1.612 1.423 2.364 2.364 0 0 0 3.148-.318 2.1 2.1 0 0 0-.028-2.969c-.033-.032-.066-.062-.1-.092a11.146 11.146 0 0 0-.854-.8c-.173-.151-.346-.3-.513-.461-1.75-1.66-2.859-3.209-2.581-5.373a2.5 2.5 0 0 0-.035-.742 2.294 2.294 0 0 0-2.12-1.776 2.389 2.389 0 0 0-2.484 1.372 4.848 4.848 0 0 0-.279.851c-.033.131-.067.262-.107.391a17.021 17.021 0 0 1-3.8 6.709c-.1.1-.193.2-.292.3a6.183 6.183 0 0 0-.6.663 2.315 2.315 0 0 0 .065 2.945 2.477 2.477 0 0 0 1.753.71 2.149 2.149 0 0 0 1.424-.51 19.645 19.645 0 0 0 2.094-2.223z" class="prefix__cls-3" data-name="패스 13" transform="translate(-623.152 -370.226)"/>
            <path id="prefix__패스_14" d="M711.639 375.755l-1.534.123c-.255-1.63-.617-3-.638-3.077a2.122 2.122 0 0 0-4.1 1.094 25.516 25.516 0 0 1 .733 4.322 35.414 35.414 0 0 1-.277 4.959 2.123 2.123 0 0 0 4.2.626c0-.023.233-1.8.312-3.694l1.538-.119a2.126 2.126 0 0 0 1.3-3.711 2.074 2.074 0 0 0-1.534-.523z" class="prefix__cls-3" data-name="패스 14" transform="translate(-623.156 -370.226)"/>
            <path id="prefix__패스_15" d="M701.518 398.4q-.266.023-.529.039c-.38.025-.761.043-1.142.05-.22 0-.44-.032-.66-.032-.073-.007-.147-.014-.22-.023a4.368 4.368 0 0 1-.679-.129 1.026 1.026 0 0 1-.574-.318.352.352 0 0 1-.043-.307.476.476 0 0 1 .141-.234 2.439 2.439 0 0 1 1.026-.459c.356-.1.719-.166 1.081-.235l.257-.05q.391-.076.788-.148a14.983 14.983 0 0 0 3.763-1.043 6.954 6.954 0 0 0 .81-.45 3.6 3.6 0 0 0 1.507-4.426c-.785-1.878-2.268-2.838-4.956-3.206a12.472 12.472 0 0 0-6.832 1.066 1.9 1.9 0 0 0-1.079 1.061 1.617 1.617 0 0 0 .077 1.291 2.265 2.265 0 0 0 2.36 1.212 11.559 11.559 0 0 0 2-.418c.463-.126.942-.256 1.413-.336a3.151 3.151 0 0 1 2.151.158.518.518 0 0 1 .2.415c.012.484-.6.692-1.275.845-.363.083-.731.141-1.1.2-.332.053-.662.106-.99.176a24.539 24.539 0 0 0-2.488.644 7.463 7.463 0 0 0-2.142.988 3.749 3.749 0 0 0-1.234 1.469 3.812 3.812 0 0 0 .5 3.809 5.9 5.9 0 0 0 3.187 1.979 8.876 8.876 0 0 0 .992.208q.547.086 1.092.133.759.069 1.508.068a21.789 21.789 0 0 0 8.876-1.824 2 2 0 1 0-1.732-3.609q-.282.135-.57.257-.333.141-.673.261a15.5 15.5 0 0 1-2.594.638q-1.101.18-2.217.28z" class="prefix__cls-3" data-name="패스 15" transform="translate(-623.155 -370.226)"/>
        </g>
    </g>
</svg>
