<?xml version="1.0" standalone="no"?>
<!DOCTYPE svg PUBLIC "-//W3C//DTD SVG 1.1//EN" "http://www.w3.org/Graphics/SVG/1.1/DTD/svg11.dtd" >
<svg xmlns="http://www.w3.org/2000/svg">
<metadata>Generated by IcoMoon</metadata>
<defs>
<font id="LG" horiz-adv-x="1024">
<font-face units-per-em="1024" ascent="960" descent="-64" />
<missing-glyph horiz-adv-x="1024" />
<glyph unicode="&#x20;" horiz-adv-x="512" d="" />
<glyph unicode="&#xe900;" glyph-name="arrow2-left" horiz-adv-x="1195" d="M1194.667 490.667h-1045.333l341.333 409.6-64 59.733-426.667-512 426.667-512 64 59.733-341.333 409.6h1045.333z" />
<glyph unicode="&#xe901;" glyph-name="arrow2-right" horiz-adv-x="1195" d="M0 490.667h1045.333l-341.333 409.6 64 59.733 426.667-512-426.667-512-64 59.733 341.333 409.6h-1045.333z" />
<glyph unicode="&#xe902;" glyph-name="arrow-up" horiz-adv-x="1801" d="M1697.97-30.194l-878.19 878.19 87.237 87.237 878.19-878.19-87.237-87.237zM24.774 53.786l878.19 878.19 87.237-87.237-878.19-878.19-87.237 87.237z" />
<glyph unicode="&#xe903;" glyph-name="arrow-down" horiz-adv-x="1801" d="M1782.77 848.966l-878.19-878.19-87.237 87.237 878.19 878.19 87.237-87.237zM109.573 934.585l878.19-878.19-87.237-87.237-878.19 878.19 87.237 87.237z" />
<glyph unicode="&#xe904;" glyph-name="arrow-left" horiz-adv-x="569" d="M569.153-11.609l-464.372 461.991 457.228 454.847-54.772 54.772-509.619-509.619 54.772-52.391 464.372-461.991z" />
<glyph unicode="&#xe905;" glyph-name="arrow-right" horiz-adv-x="569" d="M569.153 450.381l-509.619 509.619-54.772-54.772 457.228-454.847-464.372-461.991 52.391-52.391 464.372 461.991z" />
<glyph unicode="&#xe906;" glyph-name="buger" horiz-adv-x="1170" d="M0 960h1170.286v-146.286h-1170.286zM0 521.143h1170.286v-146.286h-1170.286zM0 82.286h1170.286v-146.286h-1170.286z" />
<glyph unicode="&#xe907;" glyph-name="home" horiz-adv-x="1070" d="M1033.225 529.489l-178.354 153.754v246.006c0 12.3 0 30.751 0 30.751h-184.505c0 0 0-18.45 0-30.751v-92.252l-126.078 116.853c-9.225 6.15-18.45 6.15-27.676 0l-482.787-424.36c-6.15-6.15-9.225-15.375-6.15-24.601 3.075-6.15 18.45-6.15 27.676-6.15h61.502v-522.763c0-3.075 24.601-30.751 30.751-30.751h276.757c12.3 0 30.751 18.45 30.751 30.751v276.757h153.754v-276.757c0-3.075 33.826-30.751 30.751-30.751h276.757c12.3 0 30.751 18.45 30.751 30.751v522.763h61.502c9.225 0 27.676 0 30.751 6.15 3.075 9.225 0 18.45-6.15 24.601z" />
<glyph unicode="&#xe908;" glyph-name="logo-LG" horiz-adv-x="9426" d="M2612.449 915.044h-294.712c-14.985 0-24.976-9.99-24.976-24.976v-534.478l-329.678 534.478c-9.99 9.99-29.971 19.98-44.956 19.98h-339.668c-14.985 0-24.976-9.99-24.976-24.976v-914.107c0-14.985 9.99-24.976 24.976-24.976h294.712c14.985 0 24.976 9.99 24.976 24.976v534.478l324.683-539.473c9.99-9.99 29.971-19.98 44.956-19.98h339.668c14.985 0 24.976 9.99 24.976 24.976v914.107c4.995 14.985-4.995 29.971-19.98 29.971zM1413.62-24.039c0-14.985-9.99-24.976-24.976-24.976h-294.712c-14.985 0-24.976 9.99-24.976 24.976v909.112c0 14.985 9.99 24.976 24.976 24.976h294.712c14.985 0 24.976-9.99 24.976-24.976v-909.112zM409.6 230.712c-9.99 0-14.985 4.995-14.985 14.985v639.376c0 14.985-9.99 24.976-24.976 24.976h-289.717c-14.985 4.995-29.971-9.99-29.971-24.976v-914.107c0-14.985 9.99-24.976 24.976-24.976h824.195c14.985 0 24.976 9.99 24.976 24.976v229.776c0 14.985-9.99 24.976-24.976 24.976h-489.522zM3141.932 215.727c-9.99 0-14.985 4.995-14.985 14.985v69.932c0 9.99 4.995 14.985 14.985 14.985h434.576c14.985 0 24.976 9.99 24.976 24.976v174.829c0 14.985-9.99 24.976-24.976 24.976h-434.576c-9.99 0-14.985 4.995-14.985 14.985v74.927c0 9.99 4.995 14.985 14.985 14.985h474.537c14.985 0 24.976 9.99 24.976 24.976v214.79c0 14.985-9.99 24.976-24.976 24.976h-809.21c-14.985 0-24.976-9.99-24.976-24.976v-914.107c0-14.985 9.99-24.976 24.976-24.976h804.215c14.985 0 24.976 9.99 24.976 24.976v214.79c0 14.985-9.99 24.976-24.976 24.976h-469.541zM7362.81 915.044h-304.702c-14.985 0-34.966-9.99-44.956-19.98l-199.805-329.678c-9.99-9.99-24.976-9.99-29.971 0l-199.805 329.678c-9.99 9.99-29.971 19.98-44.956 19.98h-314.693c-14.985 0-24.976-9.99-24.976-24.976v-914.107c0-14.985 9.99-24.976 24.976-24.976h289.717c14.985 0 24.976 9.99 24.976 24.976v434.576l164.839-279.727c9.99-9.99 29.971-19.98 44.956-19.98h94.907c14.985 0 34.966 9.99 44.956 19.98l159.844 269.737v-424.585c0-14.985 9.99-24.976 24.976-24.976h294.712c14.985 0 24.976 9.99 24.976 24.976v909.112c-4.995 14.985-14.985 29.971-29.971 29.971zM4270.829-54.010c-24.976 0-39.961 4.995-64.937 29.971l-149.854 149.854c-14.985 14.985-24.976 34.966-24.976 64.937v479.532c0 29.971 9.99 49.951 24.976 64.937v0l149.854 149.854c19.98 19.98 39.961 29.971 64.937 29.971h639.376c14.985 0 24.976-9.99 24.976-24.976v-234.771c0-14.985-9.99-24.976-24.976-24.976h-464.546c-14.985 0-24.976-4.995-34.966-9.99-9.99-9.99-14.985-19.98-19.98-24.976s-9.99-14.985-9.99-24.976v-274.732c0-9.99 4.995-19.98 9.99-24.976 4.995-9.99 14.985-14.985 19.98-19.98 9.99-4.995 14.985-9.99 34.966-9.99h134.868c9.99 0 14.985 4.995 14.985 14.985v179.824c0 14.985 9.99 24.976 24.976 24.976h289.717c14.985 0 24.976-9.99 24.976-24.976v-454.556c0-14.985-9.99-24.976-24.976-24.976h-639.376zM6029.112 915.044c14.985 0 24.976-9.99 24.976-24.976v-914.107c0-14.985-9.99-24.976-24.976-24.976h-294.712c-14.985 0-24.976 9.99-24.976 24.976v194.81c0 9.99-4.995 14.985-14.985 14.985h-259.746c-9.99 0-14.985-4.995-14.985-14.985v-194.81c0-14.985-9.99-24.976-24.976-24.976h-289.717c-14.985 0-24.976 9.99-24.976 24.976v699.317c0 29.971 9.99 49.951 24.976 64.937v0l149.854 149.854c19.98 19.98 39.961 29.971 64.937 29.971h709.307zM5419.707 445.502c0-9.99 4.995-14.985 14.985-14.985h259.746c9.99 0 14.985 4.995 14.985 14.985v164.839c0 9.99-4.995 14.985-14.985 14.985h-209.795c-14.985 0-24.976-4.995-34.966-9.99s-14.985-14.985-19.98-19.98c-4.995-4.995-9.99-14.985-9.99-24.976v-124.878zM8526.673 335.61c0-14.985 9.99-24.976 24.976-24.976h474.537c9.99 0 14.985-4.995 14.985-14.985v-44.956c0-9.99-4.995-14.985-14.985-14.985h-474.537c-14.985 0-24.976-9.99-24.976-24.976v-234.771c0-14.985 9.99-24.976 24.976-24.976h594.42c24.976 0 39.961 4.995 64.937 29.971l149.854 149.854c14.985 14.985 24.976 34.966 24.976 64.937v329.678c0 14.985-9.99 24.976-24.976 24.976h-474.537c-9.99 0-14.985 4.995-14.985 14.985v44.956c0 9.99 4.995 14.985 14.985 14.985h474.537c14.985 0 24.976 9.99 24.976 24.976v234.771c0 14.985-9.99 24.976-24.976 24.976h-599.415c-24.976 0-39.961-4.995-64.937-29.971l-149.854-149.854c-14.985-14.985-24.976-34.966-24.976-64.937v-329.678zM7887.298 215.727c-9.99 0-14.985 4.995-14.985 14.985v69.932c0 9.99 4.995 14.985 14.985 14.985h434.576c14.985 0 24.976 9.99 24.976 24.976v174.829c0 14.985-9.99 24.976-24.976 24.976h-434.576c-9.99 0-14.985 4.995-14.985 14.985v74.927c0 9.99 4.995 14.985 14.985 14.985h474.537c14.985 0 24.976 9.99 24.976 24.976v214.79c0 14.985-9.99 24.976-24.976 24.976h-804.215c-14.985 0-24.976-9.99-24.976-24.976v-914.107c0-14.985 9.99-24.976 24.976-24.976h809.21c14.985 0 24.976 9.99 24.976 24.976v214.79c0 14.985-9.99 24.976-24.976 24.976h-479.532z" />
<glyph unicode="&#xe909;" glyph-name="play" horiz-adv-x="919" d="M852.785 528.669c0 0-595.961 428.039-724.373 428.039s-131.704-131.704-131.704-131.704 0-395.113 0-757.299c0-134.997 131.704-131.704 131.704-131.704s622.302 335.846 724.373 428.039c105.363 95.486 0 164.63 0 164.63z" />
<glyph unicode="&#xe90a;" glyph-name="plus" d="M460.8 960h102.4v-460.8h460.8v-102.4h-460.8v-460.8h-102.4v460.8h-460.8v102.4h460.8v460.8z" />
<glyph unicode="&#xe90b;" d="M1024 448c0-282.77-229.23-512-512-512s-512 229.23-512 512c0 282.77 229.23 512 512 512s512-229.23 512-512z" />
<glyph unicode="&#xe90c;" d="M477.867 789.333h68.267v-307.2h307.2v-68.267h-307.2v-307.2h-68.267v307.2h-307.2v68.267h307.2v307.2z" />
<glyph unicode="&#xe90d;" glyph-name="arrow-dubble-left" horiz-adv-x="953" d="M569.153-11.609l-464.372 461.991 457.228 454.847-54.772 54.772-509.619-509.619 54.772-52.391 464.372-461.991zM973.991-11.609l-464.372 461.991 457.228 454.847-54.772 54.772-509.619-509.619 54.772-52.391 464.372-461.991z" />
<glyph unicode="&#xe90e;" glyph-name="arrow-dubble-right" horiz-adv-x="953" d="M569.153 450.381l-509.619 509.619-54.772-54.772 457.228-454.847-464.372-461.991 52.391-52.391 464.372 461.991zM973.991 450.381l-509.619 509.619-54.772-54.772 457.228-454.847-464.372-461.991 52.391-52.391 464.372 461.991z" />
<glyph unicode="&#xe90f;" glyph-name="download" d="M512 277.333l-273.067 204.8 42.667 51.2 196.267-153.6v546.133h68.267v-546.133l187.733 153.6 42.667-51.2zM68.267 72.533h887.467v136.533h-68.267v-68.267h-750.933v68.267h-68.267z" />
<glyph unicode="&#xe910;" glyph-name="table" d="M0 960h1024v-256h-1024v256zM0 704v-768h51.2v768zM307.2 704v-768h51.2v768zM665.6 704v-768h51.2v768zM972.8 704v-768h51.2v768zM0-64h1024v51.2h-1024zM0 448h1024v51.2h-1024zM0 192h1024v51.2h-1024z" />
<glyph unicode="&#xe911;" glyph-name="human" horiz-adv-x="1434" d="M491.52 878.080c135.578 0 245.76-110.182 245.76-245.76s-110.182-245.76-245.76-245.76-245.76 110.182-245.76 245.76 110.182 245.76 245.76 245.76zM491.52 960c-181.043 0-327.68-146.637-327.68-327.68s146.637-327.68 327.68-327.68 327.68 146.637 327.68 327.68-146.637 327.68-327.68 327.68v0zM1024 755.2c113.050 0 204.8-91.75 204.8-204.8s-91.75-204.8-204.8-204.8-204.8 91.75-204.8 204.8 91.75 204.8 204.8 204.8zM1024 837.12c-158.515 0-286.72-128.205-286.72-286.72s128.205-286.72 286.72-286.72 286.72 128.205 286.72 286.72-128.205 286.72-286.72 286.72v0zM1024 263.68c152.371 0 280.986-104.448 317.44-245.76h-634.88c36.454 141.312 165.069 245.76 317.44 245.76zM1024 345.6c-226.099 0-409.6-183.501-409.6-409.6h819.2c0 226.099-183.501 409.6-409.6 409.6v0zM491.52 304.64c180.634 0 337.51-120.422 390.349-286.72h-780.698c52.838 166.298 209.715 286.72 390.349 286.72zM491.52 386.56c-257.638 0-468.582-198.246-489.472-450.56h978.944c-20.89 252.314-231.834 450.56-489.472 450.56v0z" />
<glyph unicode="&#xe912;" glyph-name="seach" d="M418.909 866.909c179.665 0 325.818-146.153 325.818-325.818s-146.153-325.818-325.818-325.818-325.818 146.153-325.818 325.818 146.153 325.818 325.818 325.818zM418.909 960c-231.331 0-418.909-187.578-418.909-418.909s187.578-418.909 418.909-418.909 418.909 187.578 418.909 418.909-187.578 418.909-418.909 418.909v0zM757.295 304.175v0 0zM670.72 329.775c-10.24 0-3.258-51.665-19.084-67.956-4.189-4.189-8.844-5.585-14.429-5.585-13.964 0-29.324 9.775-31.185 9.775-0.931 0 0.465-1.396 4.189-5.585l296.029-296.029c9.309-9.309 20.945-13.498 33.047-13.498s23.738 4.655 33.047 13.498c18.153 18.153 18.153 47.476 0 65.629l-296.029 296.029c-2.327 2.793-4.189 3.724-5.585 3.724v0z" />
<glyph unicode="&#xea0f;" glyph-name="cross" d="M1014.662 137.34c-0.004 0.004-0.008 0.008-0.012 0.010l-310.644 310.65 310.644 310.65c0.004 0.004 0.008 0.006 0.012 0.010 3.344 3.346 5.762 7.254 7.312 11.416 4.246 11.376 1.824 24.682-7.324 33.83l-146.746 146.746c-9.148 9.146-22.45 11.566-33.828 7.32-4.16-1.55-8.070-3.968-11.418-7.31 0-0.004-0.004-0.006-0.008-0.010l-310.648-310.652-310.648 310.65c-0.004 0.004-0.006 0.006-0.010 0.010-3.346 3.342-7.254 5.76-11.414 7.31-11.38 4.248-24.682 1.826-33.83-7.32l-146.748-146.748c-9.148-9.148-11.568-22.452-7.322-33.828 1.552-4.16 3.97-8.072 7.312-11.416 0.004-0.002 0.006-0.006 0.010-0.010l310.65-310.648-310.65-310.652c-0.002-0.004-0.006-0.006-0.008-0.010-3.342-3.346-5.76-7.254-7.314-11.414-4.248-11.376-1.826-24.682 7.322-33.83l146.748-146.746c9.15-9.148 22.452-11.568 33.83-7.322 4.16 1.552 8.070 3.97 11.416 7.312 0.002 0.004 0.006 0.006 0.010 0.010l310.648 310.65 310.648-310.65c0.004-0.002 0.008-0.006 0.012-0.008 3.348-3.344 7.254-5.762 11.414-7.314 11.378-4.246 24.684-1.826 33.828 7.322l146.746 146.748c9.148 9.148 11.57 22.454 7.324 33.83-1.552 4.16-3.97 8.068-7.314 11.414z" />
<glyph unicode="&#xea10;" glyph-name="checkmark" d="M864 832l-480-480-224 224-160-160 384-384 640 640z" />
</font>
</defs>
</svg>
