<svg xmlns="http://www.w3.org/2000/svg" id="main_drive_Insurance_ic" width="84" height="84" viewBox="0 0 84 84">
    <defs>
        <style>
            .cls-1{fill:#454545}.cls-2,.cls-5{fill:#fff}.cls-3{fill:#3aff00;opacity:0}.cls-4,.cls-7{fill:none}.cls-4,.cls-5{stroke:#1e46ba}.cls-4{stroke-width:3px}.cls-5{stroke-width:2px}.cls-6{stroke:none}
        </style>
    </defs>
    <path id="패스_1030" d="M-605.738 3533.584l-6.885-1.258-5.925-6.928c-.3-.361-2.466-2.867-5.1-2.867h-16.937c-2.631 0-4.8 2.506-5.1 2.867l-5.994 7.008-3.9 1.184a4.311 4.311 0 0 0-4.029 4.3v8.8a4.31 4.31 0 0 0 4.305 4.3h3.372a6.491 6.491 0 0 0 6.289 4.918 6.491 6.491 0 0 0 6.289-4.918h15.736a6.491 6.491 0 0 0 6.289 4.918 6.491 6.491 0 0 0 6.289-4.918h5.125a4.31 4.31 0 0 0 4.305-4.3v-8.8a4.311 4.311 0 0 0-4.129-4.306zm.8 13.1a.986.986 0 0 1-.973.972h-5.181a6.49 6.49 0 0 0-6.233-4.71 6.491 6.491 0 0 0-6.233 4.71H-639.4a6.49 6.49 0 0 0-6.233-4.71 6.491 6.491 0 0 0-6.233 4.71h-3.434a.986.986 0 0 1-.973-.972v-8.8a.986.986 0 0 1 .973-.975 1.667 1.667 0 0 0 .484-.071l4.572-1.388a1.673 1.673 0 0 0 .782-.511l6.32-7.39.024-.028a4.629 4.629 0 0 1 2.531-1.661h16.937a4.576 4.576 0 0 1 2.531 1.661l.024.028 6.32 7.39a1.668 1.668 0 0 0 .967.556l7.6 1.388a1.6 1.6 0 0 0 .3.027.986.986 0 0 1 .973.975zm-9.239 2.742a3.124 3.124 0 0 1-.419 1.562 3.147 3.147 0 0 1-2.73 1.586 3.148 3.148 0 0 1-2.73-1.586 3.121 3.121 0 0 1-.419-1.562c0-.034 0-.068.005-.1a3.13 3.13 0 0 1 .542-1.666 3.148 3.148 0 0 1 2.6-1.378 3.148 3.148 0 0 1 2.6 1.378 3.132 3.132 0 0 1 .542 1.666.366.366 0 0 1 .014.105zm-28.314 0a3.124 3.124 0 0 1-.419 1.562 3.147 3.147 0 0 1-2.73 1.586 3.148 3.148 0 0 1-2.73-1.586 3.127 3.127 0 0 1-.419-1.562c0-.034 0-.068.005-.1a3.131 3.131 0 0 1 .542-1.666 3.148 3.148 0 0 1 2.6-1.378 3.148 3.148 0 0 1 2.6 1.378 3.135 3.135 0 0 1 .542 1.666c.01.036.014.074.014.105z" class="cls-1" data-name="패스 1030" transform="translate(669.601 -3490.479)"/>
    <ellipse id="타원_121" cx="16.384" cy="16.384" class="cls-2" data-name="타원 121" rx="16.384" ry="16.384" transform="translate(44 19)"/>
    <path id="패스_1871" d="M0 0h84v84H0z" class="cls-3" data-name="패스 1871"/>
    <path id="패스_1864" d="M25.408 13.892c0-.379.126-.758.126-1.263a3.893 3.893 0 0 0-.126-1.263l2.652-2.147a.6.6 0 0 0 .126-.758l-2.526-4.42a.708.708 0 0 0-.758-.126l-3.157 1.263A11.993 11.993 0 0 0 19.6 3.915L19.093.631A.508.508 0 0 0 18.588 0h-5.052c-.253 0-.631.253-.631.505l-.505 3.41a9.526 9.526 0 0 0-2.147 1.263L7.221 3.915a.781.781 0 0 0-.884.253l-2.526 4.42c-.126.126 0 .505.253.758l2.652 2.021c0 .379-.126.758-.126 1.263a3.893 3.893 0 0 0 .126 1.263l-2.652 2.146a.6.6 0 0 0-.126.758l2.526 4.42a.708.708 0 0 0 .758.126l3.157-1.263a11.993 11.993 0 0 0 2.147 1.263l.505 3.284a.578.578 0 0 0 .631.505h5.052c.253 0 .631-.253.631-.505l.505-3.284A11.993 11.993 0 0 0 22 20.081l3.157 1.263a.607.607 0 0 0 .758-.253l2.526-4.42c.124-.253.124-.632-3.033-2.779z" class="cls-4" data-name="패스 1864" transform="translate(44.888 22.434)"/>
    <g id="타원_379" class="cls-5" data-name="타원 379" transform="translate(57 31)">
        <circle cx="4" cy="4" r="4" class="cls-6"/>
        <circle cx="4" cy="4" r="3" class="cls-7"/>
    </g>
</svg>
