<svg xmlns="http://www.w3.org/2000/svg" width="84" height="84" viewBox="0 0 84 84">
    <defs>
        <style>
            .cls-1{fill:none}.cls-2{clip-path:url(#clip-path)}.cls-3{fill:#1e46ba;stroke:#1e46ba;stroke-width:.3px}.cls-4{fill:#454545}.cls-5{fill:#3aff00;opacity:0}
        </style>
        <clipPath id="clip-path">
            <path d="M0 0h84v84H0z" class="cls-1"/>
        </clipPath>
    </defs>
    <g id="main_duty_Insurance_ic" class="cls-2">
        <path id="패스_996" d="M-633.429 3685.864h24.9a10.392 10.392 0 0 0 9.264 5.767 10.338 10.338 0 0 0 10.326-10.327 7.168 7.168 0 0 0-.892-3.38 1.374 1.374 0 0 0-.866-.665 1.372 1.372 0 0 0-1.077.175l-6.018 3.854a1.085 1.085 0 0 0-.07.048 1.176 1.176 0 0 1-.384.212 1.553 1.553 0 0 1-.438-.456l-.028-.037-.7-.895a1.769 1.769 0 0 1-.294-.527 1.237 1.237 0 0 1 .287-.266l5.8-4.125a1.375 1.375 0 0 0 .577-1.076 1.374 1.374 0 0 0-.506-1.111 9.227 9.227 0 0 0-5.713-2.078 10.392 10.392 0 0 0-9.264 5.767h-24.9a4.5 4.5 0 0 0-4.31 4.559 4.5 4.5 0 0 0 4.306 4.561zm0-6.369h25.8a1.374 1.374 0 0 0 1.285-.885 7.619 7.619 0 0 1 7.081-4.881 6.175 6.175 0 0 1 2.339.489l-4.1 2.92c-.974.712-2.345 2.266-.59 4.665l.028.038.7.9a3.538 3.538 0 0 0 2.059 1.5 3.142 3.142 0 0 0 2.554-.656l4.531-2.9a3.9 3.9 0 0 1 .055.623 7.585 7.585 0 0 1-7.576 7.577 7.619 7.619 0 0 1-7.081-4.881 1.374 1.374 0 0 0-1.285-.886h-25.8a1.79 1.79 0 0 1-1.56-1.81 1.79 1.79 0 0 1 1.56-1.813z" class="cls-3" data-name="패스 996" transform="translate(658.006 -3656.978)"/>
        <g id="그룹_3203" data-name="그룹 3203" transform="translate(674.601 -3424.483)">
            <path id="패스_1027" d="M-605.735 3533.584l-6.886-1.258-5.926-6.928c-.3-.362-2.466-2.867-5.1-2.867h-16.938c-2.631 0-4.8 2.506-5.1 2.867l-5.994 7.009-3.9 1.184a4.311 4.311 0 0 0-4.029 4.3v8.8a4.31 4.31 0 0 0 4.305 4.306h3.372a6.492 6.492 0 0 0 6.289 4.919 6.492 6.492 0 0 0 6.289-4.919h15.737a6.492 6.492 0 0 0 6.29 4.919 6.492 6.492 0 0 0 6.289-4.919h5.125a4.31 4.31 0 0 0 4.305-4.306v-8.8a4.311 4.311 0 0 0-4.128-4.307zm.8 13.1a.986.986 0 0 1-.973.973h-5.181a6.491 6.491 0 0 0-6.233-4.711 6.491 6.491 0 0 0-6.233 4.711H-639.4a6.491 6.491 0 0 0-6.233-4.711 6.491 6.491 0 0 0-6.233 4.711h-3.434a.986.986 0 0 1-.973-.973v-8.8a.986.986 0 0 1 .973-.973 1.66 1.66 0 0 0 .484-.072l4.572-1.388a1.667 1.667 0 0 0 .782-.511l6.32-7.39.023-.028a4.63 4.63 0 0 1 2.532-1.661h16.938a4.577 4.577 0 0 1 2.531 1.661l.024.028 6.321 7.39a1.673 1.673 0 0 0 .967.556l7.6 1.388a1.645 1.645 0 0 0 .3.027.986.986 0 0 1 .973.973zm-9.239 2.744a3.123 3.123 0 0 1-.418 1.562 3.148 3.148 0 0 1-2.73 1.587 3.148 3.148 0 0 1-2.73-1.587 3.123 3.123 0 0 1-.419-1.562c0-.035 0-.069.005-.1a3.127 3.127 0 0 1 .542-1.666 3.147 3.147 0 0 1 2.6-1.378 3.147 3.147 0 0 1 2.6 1.378 3.127 3.127 0 0 1 .542 1.666.426.426 0 0 1 .012.104zm-28.316 0a3.123 3.123 0 0 1-.419 1.562 3.148 3.148 0 0 1-2.73 1.587 3.148 3.148 0 0 1-2.73-1.587 3.126 3.126 0 0 1-.419-1.562c0-.035 0-.069.005-.1a3.126 3.126 0 0 1 .542-1.666 3.147 3.147 0 0 1 2.6-1.378 3.147 3.147 0 0 1 2.6 1.378 3.13 3.13 0 0 1 .542 1.666.432.432 0 0 1 .014.104z" class="cls-4" data-name="패스 1027" transform="translate(0 -61.161)"/>
        </g>
        <path id="사각형_635" d="M0 0h84v84H0z" class="cls-5" data-name="사각형 635"/>
    </g>
</svg>
