<svg xmlns="http://www.w3.org/2000/svg" width="72" height="72" viewBox="0 0 72 72">
    <defs>
        <style>
            .cls-1{fill:#fff;stroke:#d4d4d4}.cls-2{fill:#291617}.cls-3{fill:none}.cls-4{fill:#d8bf16}.cls-5{fill:#281617}.cls-6{stroke:none}
        </style>
    </defs>
    <g id="point_kakao_share_btn" transform="translate(-578 -743)">
        <g id="타원_112" class="cls-1" data-name="타원 112" transform="translate(578 743)">
            <ellipse cx="36" cy="36" class="cls-6" rx="36" ry="36"/>
            <ellipse cx="36" cy="36" class="cls-3" rx="35.5" ry="35.5"/>
        </g>
        <g id="그룹_3185" data-name="그룹 3185" transform="translate(2902.002 -6941.022)">
            <path id="패스_1004" d="M-2287.84 7703.023c-10.72 0-19.411 6.829-19.411 15.254 0 5.462 3.657 10.252 9.15 12.947l-1.677 7.255 8.256-5.227a24.639 24.639 0 0 0 3.682.278c10.72 0 19.411-6.83 19.411-15.254s-8.691-15.253-19.411-15.253z" class="cls-2" data-name="패스 1004" transform="translate(0 -.001)"/>
            <g id="그룹_3184" data-name="그룹 3184" transform="translate(-2303.068 7712.444)">
                <path id="패스_1005" d="M-2266.795 7741.217l-.522-1.392-.462 1.392z" class="cls-3" data-name="패스 1005" transform="translate(2278.571 -7735.285)"/>
                <path id="패스_1006" d="M-2249.192 7736.9h-2.129v-6.576a.974.974 0 0 0-.973-.973h-.129a.974.974 0 0 0-.973.973v7.679a.977.977 0 0 0 .778.953.931.931 0 0 0 .2.02h3.232a.975.975 0 0 0 .973-.973v-.129a.974.974 0 0 0-.979-.974z" class="cls-4" data-name="패스 1006" transform="translate(2269.646 -7728.788)"/>
                <path id="패스_1007" d="M-2249.813 7735.9h-1.75v-6.2a1.354 1.354 0 0 0-1.353-1.353h-.129a1.354 1.354 0 0 0-1.352 1.353v7.678a1.357 1.357 0 0 0 1.081 1.324 1.266 1.266 0 0 0 .271.029h3.232a1.355 1.355 0 0 0 1.352-1.353v-.13a1.354 1.354 0 0 0-1.352-1.348zm.973 1.482a.975.975 0 0 1-.973.974h-3.232a.965.965 0 0 1-.195-.021.979.979 0 0 1-.778-.954v-7.678a.974.974 0 0 1 .973-.974h.129a.975.975 0 0 1 .973.974v6.576h2.129a.974.974 0 0 1 .973.972z" class="cls-5" data-name="패스 1007" transform="translate(2270.267 -7728.167)"/>
                <path id="패스_1008" d="M-2287.144 7730.341v-.128a.975.975 0 0 0-.973-.975h-6.136a.975.975 0 0 0-.974.975v.128a.974.974 0 0 0 .974.973h2.03v6.62a.975.975 0 0 0 .973.974h.129a.975.975 0 0 0 .973-.974v-6.62h2.031a.974.974 0 0 0 .973-.973z" class="cls-4" data-name="패스 1008" transform="translate(2295.606 -7728.714)"/>
                <path id="패스_1009" d="M-2287.385 7729.721v-.129a1.354 1.354 0 0 0-1.353-1.353h-6.136a1.355 1.355 0 0 0-1.353 1.353v.129a1.355 1.355 0 0 0 1.353 1.353h1.65v6.241a1.355 1.355 0 0 0 1.353 1.353h.129a1.354 1.354 0 0 0 1.352-1.353v-6.241h1.651a1.354 1.354 0 0 0 1.354-1.353zm-3.383 7.593a.974.974 0 0 1-.973.973h-.129a.974.974 0 0 1-.973-.973v-6.621h-2.03a.974.974 0 0 1-.974-.973v-.129a.975.975 0 0 1 .974-.973h6.136a.974.974 0 0 1 .973.973v.129a.974.974 0 0 1-.973.973h-2.031z" class="cls-5" data-name="패스 1009" transform="translate(2296.227 -7728.095)"/>
                <path id="패스_1010" d="M-2269.036 7737.677a.962.962 0 0 0-.092-.738l-2.793-7.448a.965.965 0 0 0-.584-.442l-.039-.016a1.547 1.547 0 0 0-.722-.185 1.546 1.546 0 0 0-.905.293.985.985 0 0 0-.51.607 1.751 1.751 0 0 0-.11.325l-2.429 7.323a.972.972 0 0 0 .739 1.146l.126.028a.975.975 0 0 0 1.165-.732l.323-.98h3.49l.078.123.381 1.015a.962.962 0 0 0 .576.428.96.96 0 0 0 .739-.092l.112-.064a.966.966 0 0 0 .455-.591zm-5.141-2.894l.966-2.91 1.09 2.91z" class="cls-4" data-name="패스 1010" transform="translate(2284.444 -7728.474)"/>
                <path id="패스_1011" d="M-2272.186 7728.729l-.013-.027a1.346 1.346 0 0 0-.8-.628 1.915 1.915 0 0 0-1.983.131 1.308 1.308 0 0 0-.668.8 1.806 1.806 0 0 0-.119.355l-2.429 7.32a1.354 1.354 0 0 0 1.02 1.619l.126.029a1.346 1.346 0 0 0 .3.033 1.344 1.344 0 0 0 1.313-1.036l.233-.7h2.986l.346.917a1.343 1.343 0 0 0 .818.632 1.338 1.338 0 0 0 1.026-.128l.112-.063a1.343 1.343 0 0 0 .633-.819 1.311 1.311 0 0 0-.116-1zm1.229 9.08a.964.964 0 0 1-.576-.428l-.381-1.016-.078-.124h-3.489l-.324.979a.974.974 0 0 1-1.165.734l-.126-.028a.972.972 0 0 1-.738-1.147l2.429-7.322a1.719 1.719 0 0 1 .109-.325.985.985 0 0 1 .51-.607 1.555 1.555 0 0 1 .906-.293 1.549 1.549 0 0 1 .722.185l.038.015a.973.973 0 0 1 .584.442l2.793 7.447a.965.965 0 0 1 .092.739.964.964 0 0 1-.455.589l-.113.064a.971.971 0 0 1-.738.096z" class="cls-5" data-name="패스 1011" transform="translate(2285.06 -7727.859)"/>
                <path id="패스_1012" d="M-2269.164 7739.733h2.056l-1.09-2.909zm1.509-.379h-.983l.462-1.392z" class="cls-5" data-name="패스 1012" transform="translate(2279.431 -7733.423)"/>
                <path id="패스_1013" d="M-2230.8 7737.228l-3-2.994 2.869-2.87a.965.965 0 0 0 .283-.688.965.965 0 0 0-.283-.688l-.092-.091a1 1 0 0 0-1.376 0l-3.272 3.272v-2.841a.974.974 0 0 0-.973-.973h-.129a.974.974 0 0 0-.973.973v7.679a.974.974 0 0 0 .973.973h.129a.975.975 0 0 0 .973-.973v-2.093l.121-.047a.929.929 0 0 0 .159-.081l.128-.08 2.991 2.989a1 1 0 0 0 1.376 0l.092-.09a.976.976 0 0 0 .004-1.377z" class="cls-4" data-name="패스 1013" transform="translate(2259.932 -7728.788)"/>
                <path id="패스_1014" d="M-2231.155 7736.339l-2.727-2.726 2.6-2.6a1.343 1.343 0 0 0 .395-.957 1.343 1.343 0 0 0-.395-.956l-.091-.092a1.387 1.387 0 0 0-1.913 0l-2.625 2.625v-1.925a1.354 1.354 0 0 0-1.353-1.353h-.129a1.354 1.354 0 0 0-1.353 1.353v7.678a1.355 1.355 0 0 0 1.353 1.353h.129a1.355 1.355 0 0 0 1.353-1.353v-1.793l2.752 2.751a1.35 1.35 0 0 0 .956.4 1.35 1.35 0 0 0 .956-.4l.092-.092a1.354 1.354 0 0 0 0-1.913zm-.36 1.736a1 1 0 0 1-1.376 0l-2.991-2.991-.128.081a.957.957 0 0 1-.159.082l-.121.047v2.092a.976.976 0 0 1-.974.974h-.129a.975.975 0 0 1-.973-.974v-7.678a.974.974 0 0 1 .973-.974h.129a.975.975 0 0 1 .974.974v2.84l3.272-3.272a1 1 0 0 1 1.376 0l.092.092a.967.967 0 0 1 .283.688.969.969 0 0 1-.283.689l-2.869 2.869 3 2.994a.975.975 0 0 1 0 1.376z" class="cls-5" data-name="패스 1014" transform="translate(2260.553 -7728.167)"/>
            </g>
        </g>
    </g>
</svg>
